<svg width="439" height="442" viewBox="0 0 439 442" fill="none" xmlns="http://www.w3.org/2000/svg">
<path fill-rule="evenodd" clip-rule="evenodd" d="M280.505 38.1361L249.338 4.74306C322.803 -13.0668 391.816 18.1003 376.233 118.281L340.613 84.8872C338.387 55.9462 313.898 33.6839 280.505 38.1361ZM40.0718 162.515L6.67878 193.682C-11.131 120.216 20.0361 51.2033 120.216 66.7869L86.8229 102.407C57.8819 104.633 35.6196 129.122 40.0718 162.515ZM434.115 249.338L400.722 280.505C405.174 313.898 382.912 338.387 353.971 340.613L320.577 376.233C420.757 391.816 451.925 322.803 434.115 249.338ZM160.282 400.722L191.45 434.115C117.984 451.925 48.971 420.757 64.5546 320.577L100.174 353.971C102.401 382.912 126.889 405.174 160.282 400.722ZM264.921 48.9773L233.754 80.1445C202.587 51.2036 174.18 39.825 140.252 53.4295C124.359 41.92 110.304 38.662 84.5967 37.8462C155.104 -18.2667 215.944 3.43323e-05 264.921 48.9773ZM360.649 238.206L391.816 269.374C440.794 220.396 459.06 159.556 402.947 89.0491C402.132 114.757 398.874 128.811 387.364 144.705C400.969 178.633 389.59 207.039 360.649 238.206ZM178.098 396.269L209.265 365.102C240.433 394.043 268.839 405.421 302.767 391.817C318.661 403.326 332.715 406.584 358.423 407.4C287.916 463.513 227.076 445.246 178.098 396.269ZM76.8982 209.265L45.731 178.098C-3.24625 227.075 -21.513 287.915 34.5999 358.423C35.4157 332.715 38.6737 318.661 50.1832 302.767C36.5787 268.839 47.9573 240.433 76.8982 209.265ZM113.538 106.858C106.859 115.763 109.085 122.442 113.538 126.894L129.121 140.252C132.247 141.855 137.069 143.101 142.479 138.026L200.361 89.049C203.683 84.793 203.352 82.358 198.134 77.918C177.115 61.6694 168.565 61.945 151.384 71.2388L113.538 106.858ZM313.077 111.074C317.53 106.622 324.208 104.395 333.113 111.074L368.733 148.92C378.027 166.101 378.302 174.652 362.054 195.671C357.613 200.888 355.179 201.22 350.922 197.897L301.946 140.015C296.871 134.606 298.116 129.784 299.72 126.658L313.077 111.074ZM329.417 333.113C336.096 324.208 333.87 317.53 329.417 313.077L313.834 299.72C310.708 298.117 305.886 296.871 300.476 301.946L242.594 350.923C239.272 355.179 239.604 357.614 244.821 362.054C265.84 378.302 274.391 378.027 291.572 368.733L329.417 333.113ZM124.381 329.417C119.929 333.87 113.25 336.096 104.345 329.417L68.7257 291.572C59.4319 274.391 59.1563 265.84 75.4048 244.821C79.8449 239.604 82.2798 239.272 86.5359 242.594L135.512 300.476C140.587 305.886 139.342 310.708 137.739 313.834L124.381 329.417ZM135.8 162.515C155.836 166.967 166.967 162.515 166.967 162.515C166.967 140.253 168.576 131.454 189.546 121.177C204.462 113.449 211.964 116.289 209.979 165.158C191.478 167.77 176.823 182.35 174.1 200.815C165.076 202.146 156.98 206.327 150.755 212.414C143.665 211.369 135.885 209.62 126.895 207.039C95.728 195.908 51.2035 173.646 55.6559 144.705C57.5255 132.553 67.1903 126.774 77.9182 122.443C81.9482 121.3 83.7714 122.932 86.8232 126.895C105.389 148.549 115.764 158.063 135.8 162.515ZM234.94 125.263C228.972 141.695 226.194 154.112 225.539 165.834C242.183 169.694 255.061 183.379 257.732 200.448C258.637 200.39 259.549 200.361 260.469 200.361C272.078 200.361 282.595 205.037 290.238 212.61C320.413 213.957 321.953 206.73 316.29 193.671C307.479 172.044 298.812 169.834 276.603 168.302C276.603 168.302 272.927 156.891 278.747 137.209C284.567 117.527 294.772 107.831 317.651 90.798C321.815 88.0261 323.568 86.3195 322.705 82.2205C319.122 71.22 314.022 61.1806 302.027 58.4796C273.461 52.047 248.189 94.9348 234.94 125.263ZM247.906 320.084C232.32 327.608 224.917 324.142 229.061 270.991C236.802 279.567 248.006 284.957 260.469 284.957C264.287 284.957 267.986 284.451 271.505 283.503C270.699 302.776 267.801 311.022 247.906 320.084ZM119.064 247.99C112.705 235.772 113.461 228.524 140.879 227.356C139.037 232.102 138.026 237.262 138.026 242.659C138.026 253.153 141.848 262.755 148.176 270.149C134.458 269.037 127.236 264.589 119.064 247.99ZM180.324 284.957C173.889 284.957 167.79 283.52 162.329 280.949C162.653 286.092 162.396 293.054 160.5 301.661C156.084 321.705 146.589 332.097 124.969 350.703C121.011 353.762 119.383 355.588 120.533 359.616C124.884 370.336 130.68 379.99 142.836 381.837C171.785 386.237 193.966 341.672 205.04 310.485C209.586 294.54 211.524 282.401 211.564 271.177C203.829 279.645 192.697 284.957 180.324 284.957ZM302.767 242.659C302.767 257.301 295.327 270.206 284.021 277.799C288.94 277.793 295.247 278.379 302.8 280.283C322.702 285.3 332.804 295.104 350.75 317.273C353.688 321.322 355.464 323.004 359.525 321.976C370.371 317.95 380.196 312.447 382.408 300.352C387.677 271.549 343.8 248.036 312.96 236.028C308.946 234.751 305.172 233.651 301.591 232.712C302.36 235.902 302.767 239.233 302.767 242.659ZM218.17 258.243V242.659C208.933 235.339 200.982 234.008 184.777 233.754C193.967 230.5 203.401 229.57 218.17 229.302C218.08 228.691 217.991 228.1 217.905 227.526C216.528 218.382 215.83 213.741 220.397 207.039C225.716 215.25 225.548 219.978 222.623 229.302C236.96 228.309 244.711 229.603 258.243 233.754C240.359 233.905 231.003 234.551 222.623 242.659V258.243H218.17Z" fill="#2C3F39"/>
</svg>
