<svg width="525" height="529" viewBox="0 0 525 529" fill="none" xmlns="http://www.w3.org/2000/svg">
<path fill-rule="evenodd" clip-rule="evenodd" d="M335.564 45.6217L298.279 5.67406C386.165 -15.6316 468.725 21.6532 450.083 141.498L407.471 101.549C404.808 66.9277 375.512 40.2956 335.564 45.6217ZM47.9374 194.414L7.98974 231.699C-13.3159 143.813 23.9689 61.2538 143.813 79.8963L103.865 122.508C69.2434 125.171 42.6113 154.466 47.9374 194.414ZM519.326 298.279L479.378 335.564C484.704 375.512 458.072 404.808 423.451 407.471L383.502 450.082C503.347 468.725 540.632 386.165 519.326 298.279ZM191.744 479.378L229.029 519.326C141.143 540.632 58.5833 503.347 77.2258 383.502L119.837 423.451C122.501 458.072 151.796 484.704 191.744 479.378ZM316.922 58.5909L279.637 95.8758C242.352 61.2542 208.37 47.6421 167.782 63.9171C148.769 50.1483 131.956 46.2508 101.202 45.2749C185.549 -21.8522 258.331 4.05164e-05 316.922 58.5909ZM431.44 284.963L468.725 322.248C527.316 263.657 549.168 190.875 482.041 106.528C481.065 137.282 477.168 154.095 463.399 173.109C479.674 213.696 466.062 247.678 431.44 284.963ZM213.057 474.051L250.342 436.767C287.627 471.388 321.609 485 362.196 468.725C381.21 482.494 398.023 486.392 428.777 487.368C344.43 554.495 271.648 532.642 213.057 474.051ZM91.9923 250.342L54.7074 213.057C-3.88345 271.647 -25.7357 344.43 41.3914 428.777C42.3673 398.023 46.2648 381.21 60.0336 362.196C43.7587 321.609 57.3707 287.626 91.9923 250.342ZM135.824 127.833C127.834 138.486 130.497 146.476 135.824 151.802L154.466 167.781C158.206 169.699 163.974 171.189 170.446 165.118L239.689 106.528C243.664 101.437 243.267 98.5238 237.026 93.2123C211.881 73.7743 201.652 74.104 181.098 85.2221L135.824 127.833ZM374.53 132.877C379.857 127.55 387.846 124.887 398.499 132.877L441.11 178.151C452.228 198.704 452.558 208.933 433.12 234.078C427.808 240.32 424.896 240.717 419.804 236.742L361.214 167.498C355.143 161.027 356.633 155.259 358.551 151.519L374.53 132.877ZM394.078 398.499C402.068 387.846 399.404 379.857 394.078 374.53L375.435 358.551C371.696 356.633 365.927 355.143 359.456 361.214L290.213 419.804C286.238 424.896 286.635 427.809 292.876 433.12C318.021 452.558 328.25 452.228 348.803 441.11L394.078 398.499ZM148.796 394.078C143.469 399.404 135.48 402.068 124.827 394.078L82.2156 348.803C71.0976 328.25 70.7679 318.021 90.2058 292.876C95.5174 286.635 98.4303 286.238 103.522 290.213L162.112 359.456C168.183 365.927 166.693 371.696 164.775 375.435L148.796 394.078ZM162.456 194.414C186.425 199.741 199.741 194.414 199.741 194.414C199.741 167.782 201.665 157.257 226.751 144.962C244.596 135.717 253.57 139.115 251.195 197.577C229.063 200.701 211.531 218.144 208.274 240.233C197.479 241.825 187.793 246.826 180.346 254.108C171.865 252.858 162.558 250.766 151.803 247.679C114.518 234.363 61.2541 207.73 66.5805 173.109C68.817 158.571 80.3789 151.658 93.2126 146.477C98.0336 145.11 100.215 147.062 103.865 151.803C126.076 177.707 138.487 189.088 162.456 194.414ZM281.056 149.85C273.916 169.508 270.594 184.362 269.809 198.385C289.721 203.003 305.126 219.374 308.321 239.793C309.404 239.724 310.495 239.689 311.595 239.689C325.483 239.689 338.064 245.284 347.207 254.342C383.306 255.954 385.148 247.308 378.374 231.686C367.833 205.813 357.466 203.17 330.896 201.338C330.896 201.338 326.499 187.687 333.461 164.141C340.423 140.596 352.632 128.996 380.002 108.621C384.983 105.304 387.08 103.263 386.048 98.3593C381.762 85.1996 375.66 73.1896 361.311 69.9584C327.138 62.2631 296.905 113.569 281.056 149.85ZM296.567 382.912C277.921 391.913 269.066 387.766 274.022 324.184C283.283 334.443 296.686 340.891 311.595 340.891C316.163 340.891 320.589 340.286 324.798 339.151C323.834 362.207 320.367 372.072 296.567 382.912ZM142.435 296.668C134.828 282.051 135.732 273.381 168.532 271.983C166.328 277.66 165.119 283.834 165.119 290.29C165.119 302.844 169.691 314.331 177.26 323.175C160.85 321.845 152.211 316.524 142.435 296.668ZM215.72 340.891C208.022 340.891 200.725 339.172 194.193 336.097C194.58 342.249 194.272 350.577 192.004 360.873C186.721 384.852 175.362 397.284 149.499 419.541C144.764 423.201 142.817 425.385 144.192 430.204C149.397 443.028 156.331 454.577 170.873 456.787C205.504 462.051 232.039 408.738 245.287 371.429C250.725 352.354 253.044 337.832 253.091 324.405C243.838 334.536 230.521 340.891 215.72 340.891ZM362.196 290.29C362.196 307.806 353.296 323.244 339.771 332.327C345.655 332.32 353.2 333.021 362.235 335.298C386.044 341.3 398.129 353.029 419.597 379.55C423.113 384.393 425.238 386.406 430.095 385.176C443.07 380.359 454.823 373.776 457.47 359.307C463.774 324.85 411.284 296.722 374.391 282.357C369.588 280.83 365.073 279.513 360.789 278.391C361.709 282.207 362.196 286.192 362.196 290.29ZM260.994 308.933V290.29C249.944 281.534 240.432 279.94 221.046 279.637C232.04 275.745 243.326 274.632 260.994 274.311C260.886 273.58 260.78 272.873 260.676 272.187C259.03 261.247 258.194 255.696 263.658 247.679C270.021 257.501 269.82 263.158 266.321 274.311C283.472 273.124 292.745 274.671 308.932 279.637C287.538 279.818 276.345 280.59 266.321 290.29V308.933H260.994Z" fill="#202020"/>
</svg>
