<svg width="1459" height="981" viewBox="0 0 1459 981" fill="none" xmlns="http://www.w3.org/2000/svg">
<path d="M1167.51 848.981C1146.47 827.269 1130.38 801.281 1120.48 772.706C1120.15 773.381 1119.7 774.056 1119.36 774.731C1121.95 774.169 1124.42 773.719 1127.01 773.156C1128.47 772.819 1128.7 770.794 1127.46 770.119C1117.78 764.944 1116.66 748.294 1114.52 738.731C1111.71 726.244 1109.12 713.756 1106.87 701.269C1102.15 675.619 1098.55 649.744 1095.96 623.756C1095.06 624.206 1094.27 624.769 1093.37 625.219C1112.16 636.356 1130.05 648.844 1146.81 662.906C1161.88 675.619 1176.96 689.231 1187.65 705.881C1199.12 723.544 1204.63 744.919 1208.01 765.394C1211.83 788.006 1211.83 811.069 1206.43 833.456C1205.87 835.594 1209.13 836.494 1209.7 834.356C1218.13 800.269 1213.86 763.931 1203.06 730.856C1192.6 699.244 1168.97 676.406 1143.66 655.931C1128.36 643.556 1112.05 632.306 1095.17 622.294C1094.16 621.731 1092.47 622.406 1092.58 623.756C1095.28 651.544 1099.22 679.106 1104.4 706.444C1106.98 720.056 1109.8 733.669 1113.06 747.056C1115.2 756.169 1116.66 768.094 1125.77 773.044C1125.88 772.031 1126 771.019 1126.22 770.006C1123.63 770.569 1121.16 771.019 1118.57 771.581C1117.67 771.806 1117.11 772.819 1117.45 773.606C1127.57 802.744 1143.88 829.181 1165.37 851.344C1166.72 852.919 1169.08 850.556 1167.51 848.981Z" fill="#202020"/>
<path d="M1096.3 626.568C1137.02 685.518 1165.15 752.568 1178.65 822.881C1179.1 825.018 1182.36 824.118 1181.91 821.981C1168.3 751.331 1140.06 683.943 1099.11 624.768C1097.99 623.081 1095.06 624.768 1096.3 626.568Z" fill="#202020"/>
<path d="M1109.8 723.543C1126.78 727.256 1144.67 731.418 1156.48 745.256C1157.83 746.943 1160.31 744.468 1158.85 742.893C1146.7 728.606 1128.25 724.106 1110.7 720.281C1108.56 719.831 1107.66 723.093 1109.8 723.543Z" fill="#202020"/>
<path d="M1154.57 723.768C1153.34 708.018 1155.81 692.381 1162.11 677.868C1163.01 675.843 1160.08 674.156 1159.18 676.181C1152.66 691.256 1149.85 707.343 1151.2 723.768C1151.42 725.906 1154.8 725.906 1154.57 723.768Z" fill="#202020"/>
<path d="M1181.68 692.831C1189.78 642.431 1224.32 603.281 1257.4 566.718C1256.5 566.156 1255.48 565.593 1254.58 565.031C1246.82 592.818 1265.05 618.581 1271.68 644.681C1275.28 659.081 1276.97 673.931 1277.31 688.781C1277.53 696.093 1277.42 703.518 1277.2 710.831C1277.08 714.431 1277.08 718.143 1276.3 721.631C1275.17 726.468 1269.77 734.006 1264.03 728.943C1263.36 729.843 1262.68 730.743 1262.01 731.643C1271.91 736.818 1268.31 751.668 1266.73 760.331C1264.71 772.031 1261.33 783.168 1253.8 792.618C1242.88 806.118 1227.25 816.131 1222.07 833.456C1221.4 835.593 1224.66 836.381 1225.33 834.356C1231.75 813.206 1254.36 803.081 1263.7 783.506C1268.53 773.381 1270.67 761.456 1271.68 750.431C1272.47 742.443 1271.68 732.881 1263.7 728.831C1262.12 728.043 1260.1 730.181 1261.67 731.531C1265.16 734.681 1270 734.681 1273.93 732.093C1278.32 729.168 1279.67 723.768 1280.12 718.706C1281.92 701.718 1281.13 683.831 1279.11 666.956C1277.08 650.081 1272.58 634.218 1266.28 618.581C1259.65 601.931 1252.78 584.268 1257.85 566.156C1258.3 564.581 1256.16 563.231 1255.03 564.468C1221.62 601.481 1186.63 641.193 1178.42 692.043C1178.08 694.068 1181.35 694.968 1181.68 692.831Z" fill="#202020"/>
<path d="M1250.76 576.505C1227.36 634.218 1212.85 695.193 1207.67 757.293C1207.45 759.43 1210.82 759.43 1211.05 757.293C1216.22 695.53 1230.73 634.893 1254.02 577.405C1254.81 575.493 1251.55 574.593 1250.76 576.505Z" fill="#202020"/>
<path d="M929.235 753.243C956.797 759.205 983.685 745.93 1010.23 740.643C1039.48 734.905 1069.63 734.905 1099 740.193C1101.13 740.53 1102.03 737.38 1099.9 736.93C1072.67 731.98 1044.88 731.643 1017.66 735.918C1003.71 738.168 990.21 741.993 976.71 745.818C961.522 749.98 945.885 753.355 930.247 749.98C927.997 749.53 927.097 752.68 929.235 753.243Z" fill="#202020"/>
<path d="M1273.71 742.893C1289.68 739.855 1305.43 743.68 1320.85 747.505C1335.92 751.105 1351.11 754.368 1366.52 757.068C1396.22 762.243 1426.37 765.28 1456.52 766.518C1458.66 766.63 1458.66 763.255 1456.52 763.143C1424.46 761.905 1392.62 758.418 1361.01 752.68C1345.71 749.868 1330.63 746.38 1315.56 742.78C1301.5 739.405 1287.21 736.93 1272.81 739.743C1270.78 740.08 1271.68 743.343 1273.71 742.893Z" fill="#202020"/>
<path d="M2.12221 648.618C41.9472 639.393 81.7722 628.706 122.16 622.856C162.435 617.118 203.272 616.443 243.885 619.931C321.96 626.681 397.785 647.156 474.285 663.018C516.472 671.793 559.11 678.993 602.197 681.918C604.335 682.031 604.335 678.656 602.197 678.543C523.222 673.143 446.497 653.006 369.322 636.581C292.597 620.381 214.522 608.681 135.997 617.681C90.4347 622.968 45.8847 635.006 1.22221 645.356C-0.915295 645.806 -0.0152913 649.068 2.12221 648.618Z" fill="#202020"/>
<path d="M321.623 626.569C387.66 620.831 452.348 605.306 516.36 588.656C581.835 571.556 647.31 554.231 712.785 536.906C778.148 519.694 843.398 502.031 908.985 485.269C941.61 476.944 974.573 469.406 1008.1 466.256C1040.39 463.219 1073.01 463.669 1105.3 466.706C1180.67 473.681 1254.02 493.819 1326.81 513.844C1328.95 514.406 1329.85 511.144 1327.71 510.581C1263.7 492.919 1199.35 475.256 1133.31 466.481C1100.46 462.094 1067.16 459.844 1033.97 461.194C1001.35 462.431 969.173 467.606 937.335 474.806C904.935 482.231 872.873 491.119 840.698 499.669C807.848 508.331 774.998 516.994 742.148 525.656C675.773 543.094 609.285 560.644 542.91 578.081C470.123 597.206 396.885 616.556 321.623 623.081C319.485 623.419 319.485 626.794 321.623 626.569Z" fill="#202020"/>
<path d="M140.385 828.843C167.835 829.855 195.398 830.868 222.848 831.88C249.623 832.893 276.51 834.468 303.285 834.693C329.385 834.918 354.585 829.855 380.235 825.243C407.01 820.405 434.123 816.918 461.235 815.005C491.498 812.755 521.873 812.418 552.135 813.655C554.273 813.768 554.273 810.393 552.135 810.28C499.035 808.03 445.823 811.068 393.398 819.618C366.623 824.005 340.073 830.755 312.96 831.318C286.41 831.993 259.523 829.968 232.973 828.955C202.148 827.83 171.323 826.705 140.498 825.58C138.248 825.355 138.248 828.73 140.385 828.843Z" fill="#202020"/>
<path d="M85.1475 976.219C86.835 977.456 88.5225 978.581 90.21 979.819C91.785 980.944 93.5849 978.469 92.2349 977.119C87.0599 971.719 81.9975 966.431 76.8225 961.031C74.46 958.556 71.6474 956.306 69.7349 953.494C66.8099 949.219 69.8475 947.194 70.5225 943.706C71.31 940.106 67.71 938.081 65.685 935.831C61.185 930.994 58.26 924.919 56.01 918.731C46.6725 893.194 43.41 864.394 42.51 837.394C41.9475 837.956 41.385 838.519 40.8225 839.081C69.1725 836.494 85.5974 863.269 95.0474 885.881C105.622 910.969 115.297 937.181 116.535 964.744C116.647 966.881 120.022 966.881 119.91 964.744C118.56 935.269 107.985 906.694 96.06 879.919C86.16 857.531 68.2725 833.119 40.71 835.594C39.81 835.706 39.0225 836.269 39.0225 837.281C39.585 851.794 40.9349 866.194 43.2974 880.481C45.6599 894.431 48.36 908.831 53.535 921.994C55.4475 926.831 57.81 931.444 60.96 935.494C63.21 938.306 67.035 940.781 65.685 944.944C65.1225 946.631 63.9974 947.531 64.1099 949.556C64.3349 954.506 69.735 958.556 72.7725 961.706C78.3975 967.556 84.135 973.519 89.76 979.369C90.435 978.469 91.1099 977.569 91.7849 976.669C90.0974 975.431 88.4099 974.306 86.7224 973.069C85.0349 972.056 83.3475 974.981 85.1475 976.219Z" fill="#202020"/>
<path d="M106.072 899.606C115.86 873.956 133.072 851.569 155.46 835.706C154.672 835.481 153.885 835.256 153.097 835.144C159.397 849.544 163.672 864.619 165.922 880.144C166.26 879.469 166.71 878.794 167.047 878.119C164.347 878.906 161.647 879.694 158.835 880.481C157.71 880.819 157.372 881.944 157.822 882.956C160.972 890.494 164.46 899.044 160.972 907.031C158.047 913.669 151.747 918.619 147.36 924.131C139.372 934.031 133.185 945.056 128.46 956.756C127.672 958.781 130.935 959.681 131.722 957.656C138.022 941.794 147.472 929.194 158.61 916.481C162.66 911.869 165.697 906.806 165.922 900.506C166.147 893.756 163.335 887.344 160.747 881.269C160.41 882.056 160.072 882.956 159.735 883.744C162.435 882.956 165.135 882.169 167.947 881.381C168.847 881.156 169.297 880.256 169.072 879.356C166.71 863.494 162.322 848.194 155.91 833.456C155.572 832.669 154.335 832.331 153.547 832.894C130.372 849.431 112.71 872.269 102.585 898.819C102.135 900.731 105.285 901.631 106.072 899.606Z" fill="#202020"/>
<path d="M52.5227 855.618C81.2102 888.581 99.8852 929.643 105.623 972.955C105.96 975.093 109.335 975.093 108.998 972.955C103.035 928.63 84.2477 886.893 54.8852 853.143C53.4227 851.568 51.0602 853.931 52.5227 855.618Z" fill="#202020"/>
<path d="M121.372 935.156C126.66 916.481 134.085 898.593 143.647 881.606C144.66 879.693 141.847 878.006 140.722 879.918C131.047 897.131 123.51 915.356 118.11 934.256C117.435 936.393 120.697 937.293 121.372 935.156Z" fill="#202020"/>
<path d="M53.6476 794.306C93.0226 786.656 133.298 783.731 172.898 791.268C191.348 794.756 209.573 798.806 228.248 800.943C247.935 803.193 267.848 804.093 287.648 804.881C289.785 804.993 289.785 801.618 287.648 801.506C267.848 800.606 247.935 799.818 228.248 797.568C207.773 795.206 187.748 790.368 167.385 786.881C129.36 780.356 90.3226 783.843 52.7476 791.156C50.6101 791.493 51.5101 794.756 53.6476 794.306Z" fill="#202020"/>
<path d="M202.034 928.068C224.534 924.468 247.034 920.756 269.759 919.406C292.822 918.056 315.097 919.968 337.709 924.131C358.409 927.956 378.434 929.756 399.584 929.306C421.522 928.743 443.684 927.731 465.059 933.468C467.197 934.031 468.097 930.768 465.959 930.206C445.259 924.581 423.997 925.256 402.734 925.818C391.484 926.156 380.122 926.268 368.872 925.368C357.284 924.468 345.809 922.106 334.447 920.081C312.622 916.143 290.909 914.681 268.634 916.031C246.022 917.493 223.522 921.093 201.134 924.693C198.997 925.143 199.897 928.406 202.034 928.068Z" fill="#202020"/>
<path d="M820.447 954.956C862.635 948.881 905.047 945.281 947.685 944.381C989.197 943.481 1030.71 945.168 1072.22 946.068C1074.36 946.068 1074.36 942.693 1072.22 942.693C1030.03 941.793 987.735 940.106 945.435 941.118C903.247 942.131 861.285 945.731 819.547 951.693C817.41 952.031 818.31 955.181 820.447 954.956Z" fill="#202020"/>
<path d="M1007.42 979.143C1023.51 972.281 1040.83 980.606 1057.37 979.818C1060.86 979.593 1064.46 979.143 1067.83 978.018C1072.45 976.443 1076.72 973.968 1081.67 973.743C1090.22 973.293 1098.21 976.556 1106.76 975.206C1108.9 974.868 1108 971.606 1105.86 971.943C1096.3 973.518 1086.96 968.793 1077.51 970.931C1073.23 971.831 1069.41 974.081 1065.25 975.318C1060.97 976.443 1056.58 976.668 1052.2 976.556C1036.56 975.881 1020.92 969.918 1005.62 976.443C1003.82 977.006 1005.51 979.931 1007.42 979.143Z" fill="#202020"/>
<path d="M1235.01 854.831C1263.36 846.393 1291.71 846.618 1320.73 850.106C1348.07 853.368 1375.63 857.643 1403.08 852.806C1405.22 852.468 1404.32 849.206 1402.18 849.543C1373.61 854.606 1344.92 849.431 1316.46 846.281C1288.45 843.131 1261.11 843.468 1234 851.681C1232.08 852.243 1232.87 855.506 1235.01 854.831Z" fill="#202020"/>
<path d="M1121.95 211.556C1101.02 200.306 1087.41 178.481 1090.56 154.293C1093.37 132.131 1111.15 113.006 1132.86 107.831C1155.02 102.656 1179.77 113.118 1191.81 132.356C1204.75 152.943 1201.93 180.168 1186.07 198.393C1168.07 219.093 1136.57 222.243 1113.85 207.618C1112.05 206.381 1110.36 209.306 1112.16 210.543C1133.31 224.268 1162.56 223.368 1182.13 207.056C1201.6 190.856 1208.8 162.731 1199.12 139.218C1189.9 116.831 1166.27 102.206 1142.08 103.218C1118.24 104.343 1096.63 121.556 1089.43 144.168C1080.43 172.181 1095.51 200.981 1120.37 214.368C1122.17 215.493 1123.86 212.568 1121.95 211.556Z" fill="#202020"/>
<path d="M150.96 457.593C162.435 447.356 178.523 454.331 187.073 464.681C191.46 469.968 194.048 475.931 197.423 481.781C199.56 485.719 202.71 489.656 207.435 490.556C211.148 491.231 214.185 489.881 216.66 487.181C218.235 485.381 219.248 483.019 220.823 481.219C224.198 477.281 228.585 477.731 232.185 480.881C240.06 487.743 240.398 504.731 254.235 503.494C256.373 503.269 256.373 499.894 254.235 500.119C239.835 501.469 241.523 477.281 227.685 474.918C223.635 474.243 220.373 476.043 217.898 479.193C216.323 481.218 215.31 484.031 213.285 485.719C207.435 490.556 202.26 483.806 199.898 479.193C194.16 468.618 188.535 457.593 177.173 452.081C167.835 447.581 156.473 448.031 148.598 455.118C147.023 456.581 149.385 459.056 150.96 457.593Z" fill="#202020"/>
<path d="M908.197 306.168C905.947 300.093 903.248 292.893 907.297 286.931C911.01 281.643 917.31 284.343 922.597 282.656C929.572 280.406 933.847 273.543 935.76 266.906C938.01 259.143 935.31 249.018 939.922 242.156C945.547 233.718 957.697 244.068 965.347 238.893C967.147 237.656 965.46 234.731 963.66 235.968C955.897 241.256 945.322 230.456 938.01 239.118C932.16 245.981 934.86 256.443 932.947 264.543C931.597 270.168 928.56 276.131 923.272 278.831C918.66 281.193 913.372 278.831 908.76 281.193C898.86 286.256 902.01 298.856 905.047 307.068C905.61 308.981 908.872 308.193 908.197 306.168Z" fill="#202020"/>
<path d="M920.348 227.306C918.21 221.681 919.448 215.268 923.61 210.768C928.785 205.143 934.748 207.393 941.16 205.143C944.985 203.793 947.235 200.531 948.698 196.931C949.598 194.681 950.16 192.318 950.948 190.068C951.623 188.268 952.41 186.243 953.76 184.893C955.785 182.981 960.623 181.406 961.86 185.681C962.535 187.706 965.685 186.918 965.123 184.781C963.66 180.056 958.148 178.368 953.873 180.618C945.773 184.781 948.698 197.156 941.16 201.318C936.998 203.568 931.823 202.218 927.435 204.018C924.623 205.256 922.148 207.281 920.235 209.643C916.073 214.931 914.723 221.906 917.085 228.206C917.76 230.231 921.023 229.331 920.348 227.306Z" fill="#202020"/>
<path d="M1015.07 347.456C1011.7 342.618 1012.71 335.756 1017.1 331.706C1022.16 326.981 1029.47 329.118 1032.96 334.518C1040.95 346.556 1023.28 357.131 1014.85 347.118C1013.38 345.431 1011.02 347.906 1012.48 349.481C1017.32 355.218 1026.32 355.893 1032.51 351.843C1039.48 347.343 1040.05 338.231 1035.21 331.818C1030.48 325.518 1021.71 323.381 1015.41 328.556C1009.45 333.393 1007.65 342.618 1012.15 349.031C1013.38 350.943 1016.31 349.256 1015.07 347.456Z" fill="#202020"/>
<path d="M1027.78 366.131C1024.63 361.743 1020.7 356.456 1022.05 350.831C1024.07 342.506 1033.97 344.643 1038.47 349.593C1042.18 353.756 1043.53 360.281 1038.81 364.218C1035.21 367.256 1029.7 367.818 1026.43 364.218C1024.97 362.643 1022.61 365.006 1024.07 366.581C1028.57 371.418 1036.22 370.968 1041.06 366.806C1046.8 361.856 1046.12 353.643 1041.62 348.131C1037.12 342.506 1026.88 338.456 1021.26 344.868C1014.96 352.068 1020.25 361.406 1024.86 367.818C1026.1 369.618 1029.02 367.931 1027.78 366.131Z" fill="#202020"/>
<path d="M271.222 600.58C283.822 604.405 296.647 606.655 309.697 607.105C311.835 607.218 311.835 603.843 309.697 603.73C296.872 603.28 284.272 601.143 272.122 597.318C269.985 596.643 269.085 599.905 271.222 600.58Z" fill="#202020"/>
<path d="M1114.97 510.58C1191.47 510.018 1263.47 538.593 1335.7 559.743C1356.4 565.818 1377.32 571.33 1398.47 575.493C1400.61 575.943 1401.51 572.68 1399.37 572.23C1324.33 557.38 1253.57 525.543 1178.08 512.605C1157.27 509.005 1136.12 506.98 1114.97 507.205C1112.83 507.205 1112.83 510.58 1114.97 510.58Z" fill="#202020"/>
<path d="M362.909 22.7807C366.847 32.2307 371.684 53.1558 385.859 43.8183C390.584 40.7808 397.559 31.8932 402.622 39.0932C405.659 43.3682 405.884 48.9932 411.622 50.9057C413.647 51.5807 414.547 48.3182 412.522 47.6432C407.234 45.8432 407.234 37.7433 402.959 34.4808C400.147 32.3433 396.659 32.4557 393.622 34.0307C389.122 36.1682 385.859 41.0057 381.134 42.5807C372.697 45.3932 368.422 27.2808 366.172 21.8808C365.272 19.9683 362.009 20.7557 362.909 22.7807Z" fill="#202020"/>
<path d="M397.897 24.8056C404.197 19.9681 413.422 22.2181 416.572 29.5306C418.485 34.1431 419.947 36.8431 425.347 37.1806C427.935 37.2931 430.747 36.3931 433.335 36.8431C438.735 37.7431 438.735 42.4681 439.635 46.8556C440.535 51.2431 442.56 55.0681 447.285 55.6306C449.422 55.8556 449.422 52.4806 447.285 52.2556C441.097 51.5806 443.685 38.8681 438.847 35.2681C433.672 31.4431 425.91 36.5056 421.86 31.7806C419.947 29.5306 419.385 26.4931 417.36 24.2431C415.785 22.3306 413.647 20.9806 411.285 20.0806C406.222 18.0556 400.597 18.7306 396.322 21.9931C394.41 23.2306 396.097 26.1556 397.897 24.8056Z" fill="#202020"/>
<path d="M499.148 130.893C506.235 132.356 513.773 127.856 515.685 120.656C517.485 113.906 513.098 107.493 506.685 105.356C491.723 100.293 483.398 120.881 495.548 129.318C497.348 130.556 499.035 127.631 497.235 126.393C488.685 120.431 493.973 105.468 504.885 108.281C509.61 109.518 513.548 113.793 512.648 118.856C511.635 124.593 505.785 128.756 500.048 127.518C497.91 127.181 497.01 130.443 499.148 130.893Z" fill="#202020"/>
<path d="M510.06 136.631C507.36 134.493 504.097 132.131 502.972 128.643C501.397 123.918 505.897 118.293 511.185 119.643C514.897 120.656 517.485 124.931 516.585 128.756C515.46 133.031 510.622 135.168 506.572 134.156C504.435 133.593 503.535 136.856 505.672 137.418C511.185 138.768 517.26 136.181 519.51 130.781C521.647 125.493 518.722 119.081 513.547 116.831C508.372 114.693 502.41 117.506 500.16 122.456C497.01 129.318 502.747 135.056 507.81 138.993C509.272 140.343 511.747 137.981 510.06 136.631Z" fill="#202020"/>
<path d="M285.622 358.818C280.447 354.206 279.435 347.231 284.497 342.056C288.885 337.668 295.41 337.781 299.572 342.393C308.235 352.068 295.747 364.668 285.51 358.031C283.71 356.793 282.022 359.718 283.822 360.956C289.897 364.893 298.222 363.543 302.947 358.143C307.785 352.518 306.322 344.081 301.147 339.131C295.635 333.956 287.422 334.293 282.135 339.581C275.722 345.993 276.735 355.331 283.26 361.181C284.835 362.643 287.197 360.281 285.622 358.818Z" fill="#202020"/>
<path d="M765.21 40.7807C771.735 26.4932 780.848 13.7807 792.098 2.86821C793.673 1.40571 791.31 -1.06928 789.735 0.505717C778.26 11.6432 769.035 24.5807 762.285 39.2057C761.385 41.0057 764.31 42.8057 765.21 40.7807Z" fill="#202020"/>
<path d="M779.272 38.5309C786.022 30.2059 793.56 22.4434 801.66 15.3559C803.347 13.8934 800.872 11.5309 799.297 12.9934C791.197 20.0809 783.772 27.8434 776.91 36.1684C775.56 37.8559 777.922 40.2184 779.272 38.5309Z" fill="#202020"/>
<path d="M787.822 48.6559C790.859 46.0684 793.897 43.5934 796.935 41.0059C798.622 39.6559 796.147 37.1809 794.572 38.6434C791.534 41.2309 788.497 43.7059 785.459 46.2934C783.772 47.6434 786.134 50.0059 787.822 48.6559Z" fill="#202020"/>
<path d="M947.01 58.5556C956.081 58.5556 963.435 51.2018 963.435 42.1306C963.435 33.0593 956.081 25.7056 947.01 25.7056C937.939 25.7056 930.585 33.0593 930.585 42.1306C930.585 51.2018 937.939 58.5556 947.01 58.5556Z" fill="#FF7052"/>
<path d="M939.473 84.0931C944.879 84.0931 949.261 79.7111 949.261 74.3056C949.261 68.9001 944.879 64.5181 939.473 64.5181C934.068 64.5181 929.686 68.9001 929.686 74.3056C929.686 79.7111 934.068 84.0931 939.473 84.0931Z" fill="#FF7052"/>
<path d="M420.96 520.48C427.608 520.48 432.998 515.091 432.998 508.443C432.998 501.795 427.608 496.405 420.96 496.405C414.312 496.405 408.923 501.795 408.923 508.443C408.923 515.091 414.312 520.48 420.96 520.48Z" fill="#FF7052"/>
<path d="M440.535 553.443C444.201 553.443 447.172 550.471 447.172 546.806C447.172 543.14 444.201 540.168 440.535 540.168C436.869 540.168 433.897 543.14 433.897 546.806C433.897 550.471 436.869 553.443 440.535 553.443Z" fill="#FF7052"/>
<path d="M557.761 371.755C558.773 381.543 561.923 390.205 573.061 389.98C576.886 389.98 580.148 388.855 583.073 391.78C585.773 394.48 584.986 397.18 586.111 400.555C586.673 402.243 587.461 403.818 589.036 404.943C591.061 406.405 598.711 406.405 598.036 409.78C597.586 411.918 600.848 412.818 601.298 410.68C602.086 406.855 599.498 404.605 595.898 403.593C590.723 402.13 589.486 400.105 588.698 395.493C588.361 393.355 587.911 391.218 586.448 389.418C583.523 385.93 578.798 386.38 574.748 386.493C570.361 386.718 566.198 386.38 563.836 382.105C562.036 378.955 561.586 375.13 561.248 371.643C560.911 369.618 557.536 369.618 557.761 371.755Z" fill="#FF7052"/>
<path d="M569.235 413.156C575.085 406.968 582.06 413.268 583.86 419.456C584.648 421.931 584.76 424.293 586.56 426.206C590.61 430.706 598.035 428.231 601.748 432.956C603.098 434.643 605.46 432.281 604.11 430.593C601.635 427.443 598.148 426.993 594.435 426.206C590.948 425.418 589.035 424.181 587.685 420.693C586.785 418.556 586.673 416.306 585.435 414.168C581.61 407.306 572.61 404.606 566.873 410.681C565.298 412.368 567.66 414.731 569.235 413.156Z" fill="#FF7052"/>
<path d="M968.835 401.792C966.698 397.742 971.198 394.705 974.573 397.18C975.585 397.855 977.16 396.955 977.16 395.717C976.823 391.892 980.648 389.08 984.248 390.43C986.273 391.217 987.173 387.955 985.148 387.167C979.523 385.03 973.335 389.755 973.785 395.717C974.685 395.267 975.473 394.705 976.373 394.255C969.96 389.642 962.423 396.73 966.023 403.48C966.923 405.392 969.848 403.705 968.835 401.792Z" fill="#FF7052"/>
<path d="M987.96 399.993C987.173 398.081 992.573 397.743 993.473 397.743C996.285 397.856 998.985 398.306 1001.8 398.531C1003.94 398.756 1003.94 395.381 1001.8 395.156C997.41 394.706 992.46 393.468 988.185 395.268C985.373 396.506 983.798 398.756 985.035 401.681C985.823 403.706 988.748 401.906 987.96 399.993Z" fill="#FF7052"/>
<path d="M401.723 534.992C409.055 534.992 414.998 529.049 414.998 521.717C414.998 514.386 409.055 508.442 401.723 508.442C394.392 508.442 388.448 514.386 388.448 521.717C388.448 529.049 394.392 534.992 401.723 534.992Z" fill="#202020"/>
<path d="M527.385 37.4053C537.264 37.4053 545.273 29.3969 545.273 19.5179C545.273 9.63887 537.264 1.63037 527.385 1.63037C517.507 1.63037 509.498 9.63887 509.498 19.5179C509.498 29.3969 517.507 37.4053 527.385 37.4053Z" fill="#202020"/>
<path d="M203.16 728.943C215.649 728.943 225.773 718.819 225.773 706.33C225.773 693.842 215.649 683.718 203.16 683.718C190.672 683.718 180.548 693.842 180.548 706.33C180.548 718.819 190.672 728.943 203.16 728.943Z" fill="#202020"/>
<path d="M975.023 649.181C981.423 649.181 986.611 643.993 986.611 637.593C986.611 631.194 981.423 626.006 975.023 626.006C968.624 626.006 963.436 631.194 963.436 637.593C963.436 643.993 968.624 649.181 975.023 649.181Z" fill="#202020"/>
<path d="M846.098 912.767C869.948 907.03 893.91 901.18 917.76 895.442C933.06 896.567 955.786 896.905 982.786 892.405C1008.44 888.13 1057.6 876.092 1057.26 862.817C1057.04 854.042 1035.1 847.742 998.873 837.28C974.91 830.417 954.773 826.367 941.385 824.005C926.535 831.317 910.561 838.517 893.348 845.38C870.061 854.717 847.898 862.03 827.311 867.767C833.498 882.842 839.798 897.805 846.098 912.767Z" fill="#202020" stroke="#202020" stroke-width="3" stroke-miterlimit="10"/>
<path d="M787.148 889.931C810.998 884.193 834.96 878.343 858.81 872.606C874.11 873.731 896.835 874.068 923.835 869.568C949.485 865.293 998.648 853.256 998.31 839.981C998.085 831.206 976.148 824.905 939.923 814.443C915.96 807.58 895.823 803.53 882.435 801.168C867.585 808.48 851.61 815.68 834.398 822.543C811.11 831.881 788.948 839.193 768.36 844.931C774.548 860.118 780.848 875.081 787.148 889.931Z" fill="#202020" stroke="#202020" stroke-width="3" stroke-miterlimit="10"/>
<path d="M664.073 682.143C642.81 693.618 624.473 706.33 621.323 708.468C610.523 716.005 585.323 733.668 560.348 759.43C523.448 797.455 492.398 829.405 494.423 869.905C496.223 906.355 523.785 931.668 526.823 934.368C575.985 978.243 681.06 962.268 787.148 894.655C783.323 874.518 779.61 854.493 775.785 834.355C785.235 832.443 806.61 826.705 826.073 808.368C850.26 785.53 855.66 757.855 857.01 748.855C856.898 738.618 855.66 726.58 852.173 713.53C841.485 673.48 816.06 648.168 802.56 636.58C767.573 642.655 714.923 654.918 664.073 682.143Z" fill="white" stroke="#202020" stroke-width="3" stroke-miterlimit="10"/>
<path d="M744.51 703.18C722.91 714.88 703.672 728.155 701.76 729.505C673.86 748.968 654.172 767.643 640.785 780.468C592.972 826.368 558.997 857.53 563.497 895.33C567.885 931.668 604.222 953.605 607.26 955.293C628.522 967.668 650.122 968.005 667.447 967.105C745.297 963.055 832.597 929.868 867.585 915.58C863.76 895.443 860.048 875.418 856.223 855.28C865.673 852.13 892.448 841.555 910.11 813.655C912.81 809.38 922.26 793.743 924.848 771.355C925.635 764.943 926.535 751.443 919.447 723.43C915.06 706.105 907.185 681.918 892.447 654.468C861.397 659.98 800.76 672.805 744.51 703.18Z" fill="white" stroke="#202020" stroke-width="3" stroke-miterlimit="10"/>
<path d="M734.273 876.767C776.011 877.78 817.635 871.48 857.123 858.092C859.148 857.417 858.248 854.155 856.223 854.83C816.961 868.217 775.786 874.517 734.273 873.392C732.136 873.28 732.136 876.655 734.273 876.767Z" fill="#202020"/>
<path d="M723.36 864.955C726.173 869.792 730.448 873.617 735.623 875.755C737.648 876.542 739.335 873.73 737.31 872.83C732.585 870.805 728.873 867.655 726.285 863.267C725.16 861.355 722.235 863.042 723.36 864.955Z" fill="#202020"/>
<path opacity="0.12" d="M794.235 781.592C755.085 803.53 734.835 799.93 695.91 830.305C685.785 838.292 626.61 884.53 634.148 931.442C634.823 935.38 638.31 957.43 654.735 966.092C661.71 969.805 668.573 969.58 678.135 968.905C710.198 966.43 734.948 960.355 737.985 959.567C777.36 949.78 770.723 953.83 797.835 946.517C815.723 941.68 839.91 934.03 868.035 922.217C864.323 902.53 860.498 882.955 856.785 863.267C864.998 859.442 876.248 853.03 887.723 842.68C896.048 835.142 919.785 813.767 925.185 780.017C928.11 761.905 924.51 748.067 918.66 725.68C912.698 702.842 904.373 685.067 898.073 673.255C862.973 734.792 823.598 765.28 794.235 781.592Z" fill="#3D3D3D"/>
<path opacity="0.11" d="M752.16 684.505C750.585 681.805 701.085 704.305 644.498 745.368C574.523 796.105 535.71 826.143 534.023 868.893C532.11 918.73 600.398 960.355 603.323 957.768C604.898 956.305 563.723 927.843 563.048 886.668C562.598 859.78 579.698 838.518 609.848 808.03C686.91 730.068 754.073 687.768 752.16 684.505Z" fill="#3D3D3D"/>
<path opacity="0.12" d="M911.235 708.918C906.06 729.393 895.373 759.656 871.973 789.468C822.135 852.806 751.373 867.43 730.673 870.918C734.16 874.293 737.535 878.118 741.023 882.168C759.698 904.668 768.923 928.743 773.76 947.643C804.36 937.068 834.96 926.381 865.448 915.806C860.723 897.131 856.11 878.343 851.385 859.668C861.06 855.73 876.81 847.743 891.66 832.556C897.848 826.143 912.81 810.505 919.785 785.755C929.91 749.08 915.735 717.805 911.235 708.918Z" fill="#3D3D3D"/>
<path d="M668.01 382.442C677.46 383.792 681.51 412.03 682.86 421.367C688.372 459.28 676.672 476.267 674.872 522.73C673.41 559.63 680.16 561.317 677.122 579.317C672.622 605.642 651.81 639.392 577.897 669.992C572.385 675.955 562.597 685.292 548.422 691.255C518.61 703.855 479.46 697.33 474.172 679.217C472.372 673.142 474.06 664.705 478.222 660.767C484.972 654.242 495.322 663.58 512.422 657.392C513.322 657.055 520.972 654.242 520.747 652.217C520.635 650.98 517.71 650.53 514.222 650.08C498.36 647.83 493.635 648.28 493.297 646.93C492.735 644.68 504.885 636.917 520.635 632.417C532.785 628.93 549.21 625.892 569.46 626.905C587.122 606.992 604.897 587.08 622.56 567.167C620.872 541.517 621.21 504.955 630.885 463.442C637.972 433.292 654.735 380.53 668.01 382.442Z" fill="white" stroke="#202020" stroke-width="3" stroke-miterlimit="10"/>
<path opacity="0.12" d="M668.46 381.88C654.623 382.105 642.135 437.118 639.548 476.155C636.285 525.542 649.223 540.955 639.548 571.217C633.135 591.242 616.935 617.005 573.398 640.405C539.085 669.092 516.248 672.13 501.173 668.53C491.948 666.392 480.473 660.43 475.298 665.492C470.91 669.767 472.935 680.342 477.548 687.542C488.573 704.305 521.76 700.255 540.66 693.617C558.21 687.43 569.798 676.63 576.435 669.317C591.848 665.155 627.848 653.117 657.773 619.142C686.91 586.067 693.773 550.855 697.26 531.73C710.648 458.942 685.335 381.543 668.46 381.88Z" fill="#3D3D3D"/>
<path d="M839.123 317.193C879.173 325.63 909.548 359.493 922.71 390.655C937.223 424.855 928.785 451.63 920.685 508.218C915.173 547.03 909.21 602.943 909.21 672.805C897.06 682.03 839.573 724.105 761.273 713.418C711.548 706.668 677.573 682.03 662.61 669.543C665.085 651.543 667.56 623.643 664.635 589.893C660.36 542.418 648.885 523.855 646.748 486.28C645.398 462.543 647.423 427.555 665.648 383.68C675.885 376.705 690.398 367.48 708.51 357.805C764.76 327.768 799.973 308.98 839.123 317.193Z" fill="#FF7052"/>
<path opacity="0.14" d="M800.197 369.73C810.547 397.405 825.173 448.706 817.41 512.156C804.473 617.568 738.435 682.705 717.96 701.38C734.385 707.905 768.36 718.705 811.672 713.755C860.61 708.13 894.135 685.406 908.198 674.606C906.96 627.806 909.773 588.881 912.923 559.968C922.598 472.893 940.035 441.506 921.473 393.693C917.085 382.33 902.348 344.305 865.11 326.755C855.323 322.143 846.435 320.118 840.248 319.105C837.998 327.093 832.823 341.38 820.223 354.43C813.248 361.856 805.935 366.58 800.197 369.73Z" fill="#3D3D3D"/>
<path opacity="0.21" d="M925.411 409.893C895.823 490.218 866.123 570.43 836.536 650.755C810.773 671.793 784.898 692.83 759.136 713.868C778.373 715.555 808.973 715.668 844.186 705.318C873.436 696.655 895.598 683.83 910.111 673.818C909.773 661.893 909.548 644.343 910.111 623.193C911.686 570.093 912.361 543.543 919.673 511.368C926.423 481.668 935.536 459.055 929.236 425.305C927.998 418.555 926.536 413.268 925.411 409.893Z" fill="#3D3D3D"/>
<path d="M448.747 642.206C462.135 674.606 475.635 707.006 489.022 739.293C543.472 720.393 598.035 701.381 652.485 682.481C639.435 651.318 626.385 620.043 613.447 588.881C558.547 606.656 503.647 624.431 448.747 642.206Z" fill="white" stroke="#202020" stroke-width="3" stroke-miterlimit="10"/>
<path d="M431.197 535.106C449.422 548.381 471.247 566.943 492.735 591.918C510.172 612.168 523.222 631.856 533.01 648.731C554.385 615.543 575.647 582.356 597.022 549.281C572.16 521.606 547.297 494.043 522.435 466.368C491.947 489.318 461.572 512.156 431.197 535.106Z" fill="white" stroke="#202020" stroke-width="3" stroke-miterlimit="10"/>
<path d="M332.647 380.756C332.647 411.131 332.647 441.506 332.647 471.993C355.935 460.518 379.222 449.043 402.51 437.681C417.922 430.143 433.335 422.606 448.747 415.181C444.36 393.018 440.085 370.968 435.697 348.806C401.385 359.381 367.072 370.068 332.647 380.756Z" fill="white" stroke="#202020" stroke-width="3" stroke-miterlimit="10"/>
<path d="M264.81 186.806C276.285 214.031 287.76 241.256 299.122 268.481C339.735 245.193 380.46 221.906 421.072 198.618C404.085 166.218 387.097 133.818 370.11 101.531C359.422 113.906 346.485 127.293 331.072 140.568C307.56 161.043 284.497 175.893 264.81 186.806Z" fill="white" stroke="#202020" stroke-width="3" stroke-miterlimit="10"/>
<path d="M96.6221 222.356C93.0221 243.281 89.5346 264.206 85.9346 285.131C127.335 275.681 168.847 266.231 210.247 256.668C209.46 233.718 208.672 210.881 207.885 187.931C170.872 199.406 133.747 210.881 96.6221 222.356Z" fill="white" stroke="#202020" stroke-width="3" stroke-miterlimit="10"/>
<path d="M449.985 645.018C488.91 650.755 527.497 657.955 565.747 666.618C567.885 667.068 568.785 663.805 566.647 663.355C528.285 654.693 489.697 647.38 450.885 641.755C448.747 641.53 447.847 644.793 449.985 645.018Z" fill="#202020"/>
<path d="M611.197 590.456C598.709 616.443 583.522 641.081 565.859 663.806C564.509 665.493 566.872 667.856 568.222 666.168C586.109 643.218 601.522 618.356 614.122 592.143C615.022 590.231 612.097 588.543 611.197 590.456Z" fill="#202020"/>
<path d="M459.097 541.855C477.997 521.83 499.034 503.943 521.984 488.643C523.784 487.405 522.097 484.48 520.297 485.718C497.122 501.243 475.859 519.243 456.734 539.493C455.159 540.955 457.634 543.43 459.097 541.855Z" fill="#202020"/>
<path d="M475.409 551.981C489.584 536.344 505.222 522.169 522.097 509.681C523.784 508.444 522.097 505.519 520.409 506.756C503.197 519.469 487.334 533.756 473.047 549.619C471.472 551.194 473.834 553.556 475.409 551.981Z" fill="#202020"/>
<path d="M489.584 570.88C507.922 550.293 528.059 531.28 549.884 514.293C551.572 512.943 549.209 510.58 547.522 511.93C525.809 528.918 505.56 547.818 487.222 568.518C485.76 570.093 488.234 572.455 489.584 570.88Z" fill="#202020"/>
<path d="M513.66 593.718C520.072 583.368 528.622 574.593 537.059 565.818C546.284 556.481 555.509 547.031 564.734 537.693C566.309 536.118 563.834 533.756 562.372 535.331C552.697 545.231 543.022 555.018 533.347 564.918C525.022 573.356 517.034 582.018 510.734 592.031C509.609 593.831 512.535 595.518 513.66 593.718Z" fill="#202020"/>
<path d="M484.522 691.593C486.547 700.818 489.922 709.48 494.535 717.58C495.547 719.493 498.472 717.805 497.46 715.893C492.959 707.905 489.697 699.58 487.785 690.693C487.335 688.555 484.072 689.455 484.522 691.593Z" fill="#202020"/>
<path d="M487.222 693.619C498.472 686.869 510.622 682.706 523.56 680.906C522.885 680.569 522.21 680.119 521.535 679.781C523.785 687.094 525.922 694.294 528.172 701.606C528.847 703.631 532.11 702.844 531.435 700.706C529.185 693.394 527.047 686.194 524.797 678.881C524.46 677.869 523.672 677.531 522.772 677.756C509.497 679.556 497.122 683.944 485.647 690.806C483.622 691.819 485.31 694.744 487.222 693.619Z" fill="#202020"/>
<path d="M496.672 718.931C507.36 714.543 517.822 709.593 528.172 704.306C530.085 703.293 528.397 700.368 526.485 701.381C516.472 706.556 506.235 711.281 495.772 715.668C493.747 716.568 494.647 719.831 496.672 718.931Z" fill="#202020"/>
<path d="M582.735 668.194C595.11 661.556 608.272 656.944 621.997 654.131C624.135 653.681 623.235 650.419 621.097 650.869C607.035 653.681 593.647 658.519 581.047 665.269C579.022 666.281 580.822 669.206 582.735 668.194Z" fill="#202020"/>
<path d="M586.785 677.869C594.322 674.606 601.86 671.344 609.285 668.081C611.31 667.181 609.51 664.256 607.597 665.156C600.06 668.419 592.522 671.681 585.097 674.944C583.072 675.844 584.872 678.656 586.785 677.869Z" fill="#202020"/>
<path d="M342.772 392.568C369.547 383.681 396.322 372.881 424.109 367.481C426.247 367.031 425.347 363.768 423.209 364.218C395.534 369.731 368.647 380.418 341.872 389.306C339.847 389.981 340.747 393.243 342.772 392.568Z" fill="#202020"/>
<path d="M342.322 407.081C367.972 395.269 394.522 385.706 421.747 378.506C423.884 377.944 422.984 374.681 420.847 375.244C393.284 382.556 366.509 392.231 340.634 404.156C338.722 405.056 340.409 407.981 342.322 407.081Z" fill="#202020"/>
<path d="M340.297 421.706C351.547 417.093 362.572 412.143 373.485 406.856C375.397 405.956 373.71 403.031 371.797 403.931C361.11 409.106 350.31 413.943 339.397 418.443C337.485 419.231 338.272 422.493 340.297 421.706Z" fill="#202020"/>
<path d="M346.485 433.856C370.222 421.819 394.522 410.794 419.272 401.006C421.297 400.219 420.397 396.956 418.372 397.744C393.285 407.644 368.76 418.781 344.797 430.931C342.772 431.944 344.572 434.869 346.485 433.856Z" fill="#202020"/>
<path d="M279.097 193.781C311.047 178.256 340.747 158.681 367.747 135.731C369.434 134.268 366.959 131.906 365.384 133.368C338.609 156.206 309.022 175.443 277.409 190.968C275.384 191.868 277.072 194.793 279.097 193.781Z" fill="#202020"/>
<path d="M285.959 208.406C299.347 200.644 312.172 192.094 324.547 182.756C326.234 181.519 324.547 178.481 322.859 179.831C310.484 189.169 297.659 197.719 284.272 205.481C282.359 206.606 284.047 209.531 285.959 208.406Z" fill="#202020"/>
<path d="M294.509 218.643C323.309 203.231 350.984 186.131 377.647 167.231C379.447 165.993 377.759 163.068 375.959 164.306C349.409 183.206 321.622 200.306 292.822 215.718C290.909 216.731 292.597 219.656 294.509 218.643Z" fill="#202020"/>
<path d="M301.709 236.081C333.547 221.681 363.922 204.356 392.497 184.106C394.297 182.868 392.609 179.943 390.809 181.181C362.347 201.431 331.972 218.756 300.022 233.156C297.997 234.056 299.684 236.868 301.709 236.081Z" fill="#202020"/>
<path opacity="0.13" d="M458.197 516.431C470.235 513.731 482.272 511.031 494.31 508.331C511.41 544.331 528.51 580.331 545.61 616.219C562.71 594.056 579.81 572.006 596.91 549.844C571.71 522.731 546.51 495.506 521.422 468.394C500.272 484.481 479.235 500.456 458.197 516.431Z" fill="#3D3D3D"/>
<path opacity="0.21" d="M369.772 372.881C363.472 401.794 357.172 430.819 350.872 459.731C383.047 444.319 415.222 428.794 447.51 413.381C442.785 392.906 438.172 372.319 433.447 351.844C412.185 358.931 390.922 365.906 369.772 372.881Z" fill="#3D3D3D"/>
<path opacity="0.08" d="M514.897 622.744C521.197 638.044 527.497 653.344 533.797 668.644C544.26 671.006 554.61 673.369 565.072 675.619C576.435 683.494 587.685 691.481 599.047 699.356C616.26 693.394 633.585 687.431 650.797 681.581C637.635 651.769 624.585 621.844 611.422 592.031C594.21 597.206 576.885 602.494 559.672 607.669C550.672 622.069 541.672 636.469 532.672 650.869C526.71 641.419 520.86 632.081 514.897 622.744Z" fill="#3D3D3D"/>
<path opacity="0.15" d="M117.772 223.706C112.372 242.494 107.085 261.394 101.685 280.181C137.572 271.856 173.46 263.531 209.347 255.206C208.11 233.606 206.985 212.006 205.747 190.406C176.385 201.544 147.022 212.681 117.772 223.706Z" fill="#3D3D3D"/>
<path opacity="0.11" d="M315.772 159.468C319.935 220.218 323.085 250.481 325.335 250.481C326.01 250.481 326.572 247.443 327.135 241.593C356.61 226.743 386.197 211.893 415.672 197.043C400.822 169.256 385.972 141.581 371.122 113.793C352.56 128.981 334.11 144.281 315.772 159.468Z" fill="#3D3D3D"/>
<path d="M897.06 362.53C912.247 360.505 930.697 404.605 938.572 430.93C951.847 475.48 947.122 514.518 942.622 550.743C937.785 589.33 935.422 608.68 926.197 628.93C896.385 694.405 821.46 719.493 792.097 727.593C784.11 733.443 769.822 742.78 750.135 748.855C708.397 761.68 653.61 756.168 646.072 734.68C643.597 727.48 645.96 717.58 651.697 712.968C661.26 705.318 675.547 716.23 699.622 708.918C700.86 708.58 711.547 705.205 711.21 702.843C710.985 701.38 707.047 700.93 702.097 700.368C679.935 697.78 673.297 698.23 672.847 696.655C672.172 693.955 689.16 684.955 711.097 679.555C728.197 675.393 751.147 671.793 779.497 673.03C807.172 647.605 834.847 622.068 862.522 596.643C862.297 534.543 867.247 483.355 872.31 445.78C882.885 369.505 891.997 363.205 897.06 362.53Z" fill="white" stroke="#202020" stroke-width="3" stroke-miterlimit="10"/>
<path d="M644.385 733.781C648.66 738.393 656.535 739.743 662.273 741.431C670.71 743.793 679.373 745.593 688.148 746.718C690.285 747.056 691.185 743.793 689.048 743.456C681.735 742.443 674.423 741.093 667.223 739.181C661.035 737.606 651.135 736.256 646.748 731.306C645.285 729.843 642.922 732.206 644.385 733.781Z" fill="#202020"/>
<path d="M646.298 723.543C660.36 732.206 676.11 737.043 692.648 737.831C694.785 737.943 694.785 734.568 692.648 734.456C676.673 733.781 661.598 729.056 647.985 720.618C646.185 719.493 644.385 722.418 646.298 723.543Z" fill="#202020"/>
<path d="M652.26 715.668C668.01 723.656 685.11 727.818 702.773 727.818C704.91 727.818 704.91 724.443 702.773 724.443C685.673 724.443 669.135 720.506 653.948 712.743C652.035 711.731 650.348 714.656 652.26 715.668Z" fill="#202020"/>
<path opacity="0.15" d="M891.21 367.48C901.335 389.53 914.723 425.305 918.66 471.093C921.585 505.405 926.423 563.905 891.21 622.18C856.56 679.443 804.023 702.168 784.56 710.493C764.985 718.93 732.135 732.655 689.498 728.155C672.285 726.355 658.335 722.08 648.66 718.368C646.523 723.093 644.498 729.843 646.86 736.03C654.51 756.168 702.21 755.83 727.86 751.893C742.148 749.755 765.885 744.018 792.435 726.355C824.385 716.905 903.81 688.78 927.66 625.218C934.635 606.655 938.798 579.993 941.048 565.48C944.198 545.005 948.81 514.293 945.885 474.693C945.885 474.693 941.61 417.43 909.885 370.518C908.422 368.268 905.048 363.543 900.098 363.205C896.273 362.98 892.898 365.793 891.21 367.48Z" fill="#3D3D3D"/>
<path opacity="0.09" d="M943.635 518.005C940.26 517.443 933.06 554.793 925.41 578.305C912.135 619.03 879.735 672.918 793.785 726.355C813.248 721.968 840.923 712.743 868.71 692.83C882.773 682.705 906.51 665.718 922.935 634.33C934.298 612.618 937.335 593.155 941.16 567.955C944.648 545.793 946.448 518.455 943.635 518.005Z" fill="#3D3D3D"/>
<path d="M633.023 155.868C632.46 181.855 631.898 207.73 631.335 233.718C623.46 266.568 635.723 299.868 661.26 316.743C689.048 335.08 720.098 325.855 724.598 324.393C724.823 330.693 724.598 338.568 722.91 347.455C721.448 355.668 719.085 362.53 716.948 367.93C730.673 380.755 743.385 384.018 750.36 385.03C783.435 389.868 821.235 363.318 841.035 317.418C835.073 311.118 827.085 301.668 819.66 289.18C815.385 282.093 805.485 264.205 799.973 238.668C794.348 212.568 799.86 209.08 795.698 189.955C790.973 168.13 777.36 143.38 758.91 130.893C727.86 110.305 675.66 119.418 633.023 155.868Z" fill="white" stroke="#202020" stroke-width="3" stroke-miterlimit="10"/>
<path d="M628.411 243.955C620.536 248.23 619.973 260.83 619.186 277.48C618.398 293.005 617.611 311.568 629.311 330.13C638.198 344.305 650.236 351.28 655.186 354.093C680.836 368.718 706.936 364.218 715.148 362.418C709.973 360.28 704.686 358.143 699.511 356.005C705.923 355.78 716.723 354.543 728.086 348.58C739.786 342.505 746.423 334.405 752.048 327.318C758.686 318.993 769.148 303.58 775.111 280.293C772.186 275.23 760.936 254.755 766.786 229.555C770.048 215.605 777.136 206.043 781.523 200.98C788.386 201.43 792.098 204.243 793.561 205.593C801.098 212.455 801.998 226.518 794.461 239.793C797.723 237.43 805.486 230.905 809.198 219.43C813.136 207.505 809.986 197.493 808.298 191.755C806.161 184.893 803.011 174.655 793.561 169.593C790.861 168.13 786.586 166.33 781.523 166.78C765.323 168.355 761.948 194.343 743.048 218.305C728.873 236.193 699.736 260.718 671.048 257.455C649.448 254.98 639.098 238.105 628.411 243.955Z" fill="#202020" stroke="#202020" stroke-width="3" stroke-miterlimit="10"/>
<path d="M668.011 199.068C669.361 216.843 669.586 234.73 668.573 252.505C668.461 254.08 670.486 254.643 671.498 253.743C677.123 248.793 682.748 243.843 688.261 238.893C689.836 237.43 687.473 235.068 685.898 236.53C680.273 241.48 674.648 246.43 669.136 251.38C670.148 251.83 671.048 252.168 672.061 252.618C673.073 234.843 672.848 216.955 671.498 199.18C671.273 196.93 667.898 196.93 668.011 199.068Z" fill="#202020"/>
<path d="M643.711 216.393C643.261 215.155 641.798 210.205 644.498 210.205C646.073 210.205 646.073 212.905 646.073 213.918C646.073 214.93 646.073 216.618 645.286 217.518C644.498 218.53 643.373 217.743 643.036 216.618C642.698 215.493 642.923 214.255 643.036 213.13C643.373 210.993 640.111 210.093 639.773 212.23C639.211 215.83 639.661 221.68 644.723 221.343C648.323 221.118 649.336 216.843 649.336 213.805C649.336 210.655 647.986 206.268 643.936 206.718C638.648 207.393 638.986 213.468 640.223 217.18C641.123 219.318 644.386 218.418 643.711 216.393Z" fill="#202020"/>
<path d="M646.072 215.38C645.285 214.48 645.285 212.905 646.072 211.893C645.172 211.78 644.272 211.668 643.372 211.555C644.272 212.793 644.497 214.593 643.485 215.83C644.385 215.943 645.285 216.055 646.185 216.168C645.847 215.605 643.485 212.343 645.397 212.23C645.172 212.23 645.398 211.893 645.285 212.455C645.285 212.905 645.397 213.468 645.397 214.03C645.397 214.368 645.172 215.83 644.61 215.493C642.81 214.255 641.122 217.18 642.922 218.418C644.947 219.768 647.535 218.418 648.322 216.393C649.11 214.48 649.11 210.655 647.085 209.418C645.285 208.293 642.81 209.305 641.797 210.993C640.447 213.355 641.797 215.943 643.147 217.968C643.71 218.755 645.06 219.205 645.848 218.305C647.76 215.943 648.097 212.568 646.297 209.98C645.735 209.193 644.385 208.743 643.598 209.643C641.573 212.118 641.573 215.38 643.598 217.855C645.06 219.318 647.422 216.955 646.072 215.38Z" fill="#202020"/>
<path d="M709.185 211.78C708.06 210.768 706.71 208.405 708.735 207.393C710.76 206.38 711.098 209.08 711.098 210.43C711.098 211.218 711.323 214.368 709.973 214.368C708.735 214.368 708.06 211.78 707.723 210.993C707.16 208.968 703.898 209.755 704.46 211.893C705.36 214.818 707.61 218.755 711.21 217.518C714.698 216.393 714.81 211.218 714.248 208.293C713.573 204.805 710.085 202.555 706.823 204.58C703.223 206.83 704.01 211.555 706.823 214.143C708.398 215.605 710.76 213.243 709.185 211.78Z" fill="#202020"/>
<path d="M711.548 212.681C711.098 211.218 710.985 209.756 711.323 208.293C710.535 208.631 709.635 208.968 708.848 209.306C709.635 209.756 709.635 211.218 708.848 211.668C709.635 212.006 710.535 212.343 711.323 212.681C710.648 211.218 710.085 209.643 709.41 208.181C709.073 207.393 708.285 206.718 707.385 207.056C706.598 207.281 705.81 208.293 706.26 209.081C706.935 210.543 707.498 212.118 708.173 213.581C708.623 214.593 709.635 215.268 710.648 214.593C713.573 212.793 713.573 208.181 710.648 206.381C709.748 205.818 708.398 206.268 708.173 207.393C707.723 209.531 707.835 211.556 708.398 213.581C708.96 215.606 712.11 214.706 711.548 212.681Z" fill="#202020"/>
<path d="M638.873 195.918C642.473 189.281 651.361 188.381 655.861 194.681C657.098 196.481 660.023 194.793 658.786 192.993C652.823 184.781 640.898 185.118 635.948 194.231C634.936 196.143 637.861 197.831 638.873 195.918Z" fill="#202020"/>
<path d="M697.935 195.581C702.772 187.593 714.135 188.268 717.622 197.043C718.41 199.068 721.672 198.168 720.885 196.143C716.272 184.668 701.422 183.206 695.01 193.893C693.885 195.693 696.81 197.381 697.935 195.581Z" fill="#202020"/>
<path d="M591.285 165.88C649.785 169.255 708.173 173.98 766.448 180.055C772.973 180.73 772.86 170.605 766.448 169.93C708.173 163.743 649.785 159.018 591.285 155.755C584.76 155.418 584.76 165.543 591.285 165.88Z" fill="#202020"/>
<path d="M629.197 158.455C630.097 149.793 633.81 127.518 651.697 109.293C675.885 84.6555 718.072 76.1055 751.372 95.793C777.472 111.318 792.66 140.905 790.86 172.293C736.972 167.793 683.085 163.068 629.197 158.455Z" fill="#FF7052"/>
<path opacity="0.11" d="M792.773 238.556C792.661 239.456 791.198 246.993 784.448 250.368C780.961 252.056 777.698 252.056 776.123 251.831C782.986 260.606 811.111 298.631 802.223 345.206C799.861 357.356 795.473 367.593 790.973 375.693C798.398 371.081 808.073 363.993 817.523 353.531C829.223 340.593 835.86 327.656 839.685 318.656C832.598 309.768 824.835 298.856 817.523 285.693C807.961 268.481 801.886 252.281 797.836 239.006C796.036 238.893 794.461 238.668 792.773 238.556Z" fill="#3D3D3D"/>
<path opacity="0.12" d="M667.897 199.743C663.847 215.268 659.685 230.906 655.635 246.431C660.247 248.231 664.86 250.031 669.36 251.831C668.91 234.393 668.46 217.068 667.897 199.743Z" fill="#3D3D3D"/>
<path opacity="0.69" d="M703.111 89.6055C691.523 100.18 697.936 132.13 718.298 165.993C742.373 168.13 766.448 170.38 790.523 172.518C791.311 162.618 791.423 143.38 780.286 124.93C761.273 93.5429 717.398 76.668 703.111 89.6055Z" fill="#E1411F"/>
</svg>
