<svg width="1667" height="1508" viewBox="0 0 1667 1508" fill="none" xmlns="http://www.w3.org/2000/svg">
<path d="M1271.89 341.42C1284.79 341.42 1295.25 330.96 1295.25 318.057C1295.25 305.153 1284.79 294.693 1271.89 294.693C1258.99 294.693 1248.53 305.153 1248.53 318.057C1248.53 330.96 1258.99 341.42 1271.89 341.42Z" fill="#FF7052"/>
<path d="M1296.68 276.633C1302.69 276.633 1307.57 271.756 1307.57 265.74C1307.57 259.724 1302.69 254.847 1296.68 254.847C1290.66 254.847 1285.79 259.724 1285.79 265.74C1285.79 271.756 1290.66 276.633 1296.68 276.633Z" fill="#FF7052"/>
<path d="M582.553 134.877C588.727 134.877 593.732 129.871 593.732 123.697C593.732 117.522 588.727 112.517 582.553 112.517C576.38 112.517 571.375 117.522 571.375 123.697C571.375 129.871 576.38 134.877 582.553 134.877Z" fill="#FF7052"/>
<path d="M1314.02 1443.37C1324.47 1443.37 1332.94 1434.9 1332.94 1424.45C1332.94 1414 1324.47 1405.53 1314.02 1405.53C1303.57 1405.53 1295.1 1414 1295.1 1424.45C1295.1 1434.9 1303.57 1443.37 1314.02 1443.37Z" fill="#FF7052"/>
<path d="M453.143 1508.15C457.971 1508.15 461.885 1504.24 461.885 1499.41C461.885 1494.58 457.971 1490.67 453.143 1490.67C448.314 1490.67 444.4 1494.58 444.4 1499.41C444.4 1504.24 448.314 1508.15 453.143 1508.15Z" fill="#FF7052"/>
<path d="M562.347 862.293C567.334 862.293 571.376 858.25 571.376 853.263C571.376 848.276 567.334 844.233 562.347 844.233C557.361 844.233 553.318 848.276 553.318 853.263C553.318 858.25 557.361 862.293 562.347 862.293Z" fill="#FF7052"/>
<path d="M580.117 908.303C584.945 908.303 588.859 904.389 588.859 899.56C588.859 894.731 584.945 890.817 580.117 890.817C575.289 890.817 571.375 894.731 571.375 899.56C571.375 904.389 575.289 908.303 580.117 908.303Z" fill="#091520"/>
<path d="M569.656 1151.97C578.679 1151.97 585.994 1144.65 585.994 1135.63C585.994 1126.61 578.679 1119.29 569.656 1119.29C560.633 1119.29 553.318 1126.61 553.318 1135.63C553.318 1144.65 560.633 1151.97 569.656 1151.97Z" fill="#091520"/>
<path d="M1258.85 223.313C1264.54 223.313 1269.16 218.693 1269.16 212.993C1269.16 207.294 1264.54 202.673 1258.85 202.673C1253.15 202.673 1248.53 207.294 1248.53 212.993C1248.53 218.693 1253.15 223.313 1258.85 223.313Z" fill="#091520"/>
<path d="M866.312 241.373C871.298 241.373 875.341 237.33 875.341 232.343C875.341 227.356 871.298 223.313 866.312 223.313C861.325 223.313 857.283 227.356 857.283 232.343C857.283 237.33 861.325 241.373 866.312 241.373Z" fill="#091520"/>
<path d="M61.3263 947.72C65.1254 947.72 68.2053 944.64 68.2053 940.84C68.2053 937.04 65.1254 933.96 61.3263 933.96C57.5271 933.96 54.4473 937.04 54.4473 940.84C54.4473 944.64 57.5271 947.72 61.3263 947.72Z" fill="#091520"/>
<path d="M1290.09 1490.67C1299.59 1490.67 1307.29 1482.97 1307.29 1473.47C1307.29 1463.97 1299.59 1456.27 1290.09 1456.27C1280.59 1456.27 1272.89 1463.97 1272.89 1473.47C1272.89 1482.97 1280.59 1490.67 1290.09 1490.67Z" fill="#091520"/>
<path d="M1474.24 18.06C1479.23 18.06 1483.27 14.0171 1483.27 9.02999C1483.27 4.04286 1479.23 0 1474.24 0C1469.26 0 1465.21 4.04286 1465.21 9.02999C1465.21 14.0171 1469.26 18.06 1474.24 18.06Z" fill="#091520"/>
<path d="M597.028 414.95C595.594 406.063 594.305 388.29 608.493 389.723C613.652 390.297 616.518 394.883 622.251 392.877C632.999 389.15 630.563 375.247 635.005 367.22C642.314 354.32 656.502 373.097 667.394 366.933C670.977 364.927 671.837 361.2 671.693 357.33C671.407 342.853 684.162 343.857 694.623 346.723C697.346 347.44 698.493 343.283 695.77 342.567C685.165 339.7 667.537 338.697 667.107 354.033C666.964 357.76 668.97 361.487 663.525 363.78C661.805 364.497 658.939 363.637 657.362 363.207C653.636 362.06 650.34 359.48 646.47 358.477C641.454 357.043 636.582 358.047 633.142 362.06C628.843 367.22 628.986 374.243 626.98 380.263C624.83 386.713 620.674 390.44 613.652 387.287C610.786 385.997 608.206 384.85 604.91 385.28C590.149 387.287 590.865 405.203 592.728 416.097C593.301 418.82 597.457 417.673 597.028 414.95Z" fill="#091520"/>
<path d="M613.939 423.263C615.085 414.377 622.251 410.507 630.563 410.507C635.006 410.507 639.449 411.223 643.748 409.647C653.493 405.92 651.63 395.313 653.923 387C658.222 371.233 678.143 380.98 689.178 378.4C696.63 376.537 702.936 369.083 699.783 361.2C698.78 358.62 694.624 359.767 695.627 362.347C700.5 374.243 683.875 374.96 676.853 374.1C671.694 373.527 666.678 372.667 661.519 373.957C653.35 376.107 650.197 382.127 649.05 389.867C648.047 397.033 648.191 404.917 638.875 406.063C633.859 406.637 628.843 405.203 623.827 406.35C615.802 408.213 610.643 414.95 609.64 422.977C609.21 425.987 613.509 425.987 613.939 423.263Z" fill="#091520"/>
<path d="M910.023 71.2367C905.007 77.5434 899.704 85.2834 902.14 93.74C904.147 100.62 909.593 103.2 916.185 102.77C920.055 102.483 924.067 101.48 927.22 104.92C929.657 107.5 928.08 112.947 927.364 115.813C926.217 120.257 924.067 124.557 924.497 129.287C925.214 135.737 930.373 140.753 936.965 139.32C939.688 138.747 938.542 134.59 935.819 135.163C923.351 138.03 931.95 117.247 932.523 112.23C932.953 108.073 932.236 103.487 929.083 100.477C925.93 97.4667 922.061 97.7534 918.048 98.1834C911.742 98.9 905.867 96.8934 905.58 89.2967C905.437 83.5634 909.449 78.4034 912.889 74.1034C914.895 72.24 911.742 69.0867 910.023 71.2367Z" fill="#091520"/>
<path d="M943.843 69.0867C937.108 71.9534 932.808 78.9767 934.528 86.2867C935.388 89.5834 937.394 92.7367 940.261 94.7434C943.7 97.3234 947.713 96.75 951.152 98.9C957.601 102.77 952.442 110.367 952.729 116.387C952.872 119.397 953.589 122.12 956.168 123.983C960.038 126.993 965.77 125.99 967.347 121.117C968.207 118.537 964.05 117.39 963.191 119.97C957.745 119.253 955.882 116.817 957.458 112.66C957.745 111.227 958.031 109.793 958.318 108.36C958.605 106.927 958.748 105.493 958.748 104.06C958.748 101.05 957.888 97.8967 955.595 95.7467C952.156 92.5934 946.853 93.8834 943.127 91.3034C935.531 86 938.254 75.9667 945.993 72.67C948.573 71.6667 946.28 68.0834 943.843 69.0867Z" fill="#091520"/>
<path d="M6.72417 916.33C3.42799 911.17 3.42799 904.863 6.72417 899.56C10.0204 894.4 14.6064 894.257 19.9089 892.25C27.2179 889.24 27.3612 881.643 26.9312 874.763C26.7879 872.327 26.6446 869.747 27.3612 867.31C29.2242 861.577 34.0969 863.153 38.5395 863.87C41.1192 864.3 43.5555 863.87 45.7052 862.437C48.4281 860.573 50.1479 857.277 51.0077 854.123C51.7243 851.543 51.8676 848.82 52.4409 846.24C52.7275 844.377 53.3007 842.657 54.1606 841.08C56.4536 837.497 59.1766 837.21 62.4727 840.363C63.1893 843.087 67.3454 841.94 66.6288 839.217C64.0492 829.9 52.5842 834.057 49.7179 840.65C48.4281 843.66 48.2848 846.957 47.5682 850.11C47.1383 851.973 46.8517 853.98 45.8485 855.7C43.6988 859.57 39.6861 858.853 35.9599 858.423C31.5172 857.993 28.0777 857.563 25.2115 861.72C21.9153 866.45 22.7752 872.04 22.7752 877.487C22.9185 884.08 21.4854 886.66 15.0363 888.81C12.4567 889.67 10.307 890.1 8.014 891.82C-0.298124 897.697 -2.44781 909.88 2.99806 918.337C4.43119 920.773 8.1573 918.623 6.72417 916.33Z" fill="#FF7052"/>
<path d="M24.6389 926.22C18.6198 925.36 20.9128 918.767 23.6358 916.187C25.6421 914.323 28.3651 913.177 30.9447 911.887C34.0976 910.31 37.2505 908.447 39.5435 905.723C45.7059 897.983 36.8205 887.663 45.4193 881.5C54.018 875.48 77.0913 872.757 70.3556 856.703C69.3525 854.123 65.6263 856.417 66.6295 858.853C71.5021 870.463 47.8556 873.903 41.8364 878.777C39.6868 880.497 37.8237 882.79 36.9638 885.513C35.2441 891.533 40.26 897.697 35.8173 903.43C30.6581 909.737 19.623 909.737 17.0434 918.623C15.4669 923.64 18.1899 929.66 23.6358 930.52C26.2154 930.807 27.3619 926.65 24.6389 926.22Z" fill="#FF7052"/>
<path d="M1595.63 593.113C1593.77 589.817 1594.05 586.233 1596.06 583.08C1599.21 578.493 1602.94 579.497 1607.81 579.927C1611.11 580.213 1614.12 580.93 1617.27 579.067C1622.86 575.627 1622 568.46 1623 563.013C1625.3 550.257 1636.33 561.867 1643.78 557.853C1646.51 556.42 1647.51 553.697 1648.08 550.83C1649.09 545.24 1649.37 528.613 1660.12 535.35C1662.41 536.783 1664.71 533.057 1662.27 531.623C1652.67 525.747 1644.93 535.493 1644.07 544.523C1643.5 549.683 1644.07 554.7 1637.19 553.983C1634.75 553.697 1632.32 552.407 1629.88 552.12C1626.01 551.69 1622.57 552.837 1620.42 556.277C1617.99 560.29 1618.85 565.307 1617.84 569.607C1615.69 579.353 1607.38 573.907 1600.65 575.053C1591.62 576.63 1587.46 587.523 1591.76 595.12C1593.19 597.7 1596.92 595.55 1595.63 593.113Z" fill="#FF7052"/>
<path d="M1616.98 602.143C1614.55 595.55 1622.14 588.24 1628.74 591.68C1629.6 592.11 1630.74 592.11 1631.32 591.393C1634.61 587.81 1635.47 583.653 1636.9 579.067C1639.48 570.753 1645.65 569.607 1653.1 567.313C1660.41 565.02 1668.58 559 1665.57 550.4C1664.56 547.82 1660.41 548.967 1661.41 551.547C1665.57 562.87 1645.22 563.73 1639.2 567.887C1631.89 573.047 1634.04 582.363 1628.45 588.383C1629.31 588.24 1630.17 588.097 1631.03 588.097C1621.43 583.08 1609.24 592.97 1612.97 603.433C1613.83 605.87 1617.99 604.867 1616.98 602.143Z" fill="#FF7052"/>
<path d="M1038.14 639.697C1038.43 639.697 1041.58 647.437 1042.87 648.44C1044.88 650.017 1047.32 650.16 1049.75 649.73C1054.05 649.013 1056.77 645.86 1060.5 643.853C1068.53 639.267 1068.53 647.15 1071.68 651.593C1075.26 656.897 1079.13 654.317 1083.29 651.737C1086.01 650.017 1088.59 648.87 1091.03 651.307C1092.32 652.597 1093.18 654.747 1094.18 656.323C1095.76 658.617 1097.48 660.48 1100.05 661.627C1102.49 662.773 1104.78 659.047 1102.2 657.9C1096.33 655.32 1095.61 645.573 1088.59 644.57C1085.29 644.14 1083.86 646.003 1081.28 647.437C1078.13 649.3 1076.26 650.59 1074.26 647.007C1073.4 645.573 1073.26 643.567 1072.25 642.133C1067.67 634.537 1060.5 638.693 1054.77 642.42C1053.76 643.137 1052.76 643.853 1051.62 644.427C1049.18 643.71 1046.6 642.993 1044.16 642.277C1043.16 641.273 1043.16 638.837 1042.3 637.547C1040.87 635.54 1039.43 634.967 1037.14 635.397C1034.27 635.97 1035.42 640.127 1038.14 639.697Z" fill="#FF7052"/>
<path d="M1071.82 625.937C1076.12 619.2 1086.01 633.247 1090.02 634.967C1092.46 635.97 1094.75 635.97 1097.33 635.253C1098.48 634.967 1099.48 634.393 1100.49 633.963C1104.36 632.387 1107.65 633.39 1110.8 636.113C1115.39 639.983 1116.68 645.143 1123.27 646.577C1127.14 647.437 1130.72 646.29 1132.44 642.563C1133.59 640.127 1129.86 637.833 1128.72 640.413C1124.71 649.013 1113.67 632.1 1110.8 630.237C1105.5 626.797 1102.21 629.663 1096.9 630.81C1088.45 632.53 1085.72 623.07 1078.7 620.777C1074.55 619.343 1070.53 620.06 1068.24 623.93C1066.52 626.223 1070.25 628.373 1071.82 625.937Z" fill="#FF7052"/>
<path d="M1073.4 1153.26C1069.1 1205.86 1071.39 1258.61 1080.28 1310.64C1080.71 1313.36 1084.86 1312.22 1084.43 1309.49C1075.69 1257.89 1073.4 1205.43 1077.7 1153.26C1077.99 1150.54 1073.69 1150.54 1073.4 1153.26Z" fill="#202020"/>
<path d="M1076.27 1156.56C1098.62 1164.3 1121.7 1169.46 1145.2 1172.04C1167.27 1174.33 1192.64 1176.77 1213.85 1168.45C1216.43 1167.45 1215.28 1163.29 1212.7 1164.3C1192.06 1172.47 1166.98 1170.03 1145.2 1167.74C1122.13 1165.3 1099.34 1160 1077.41 1152.4C1074.69 1151.4 1073.69 1155.55 1076.27 1156.56Z" fill="#202020"/>
<path d="M1110.37 1162.43C1102.92 1150.82 1096.76 1138.5 1092.46 1125.31C1090.45 1119 1088.73 1112.7 1087.44 1106.25C1086.73 1102.38 1086.01 1098.51 1085.58 1094.64C1085.58 1094.21 1084.01 1084.03 1087.01 1085.46C1088.45 1086.18 1090.88 1084.89 1090.17 1083.03C1082.29 1063.1 1077.99 1042.18 1077.56 1020.68C1076.84 1021.39 1076.12 1022.11 1075.41 1022.83C1076.55 1023.26 1077.56 1023.69 1078.7 1024.12C1080.14 1025.84 1082.86 1023.97 1082.29 1021.97C1079.42 1012.79 1077.56 1003.33 1076.98 993.587C1076.84 991.293 1077.27 965.493 1078.85 965.923C1080.57 966.353 1081.71 964.777 1081.43 963.343C1078.7 947.147 1077.41 930.663 1078.13 914.323C1078.42 906.153 1079.13 898.127 1080.42 890.1C1081.57 882.79 1082.14 873.903 1087.87 868.6C1086.73 868.457 1085.58 868.313 1084.44 868.17C1096.47 890.817 1103.21 915.613 1109.37 940.267C1115.39 964.49 1120.69 989 1125.28 1013.65C1134.59 1064.54 1140.47 1115.99 1143.05 1167.74C1143.19 1170.46 1147.49 1170.46 1147.35 1167.74C1144.77 1115.71 1138.89 1063.82 1129.44 1012.51C1124.71 986.993 1119.26 961.623 1112.95 936.397C1106.79 912.173 1100.06 888.093 1088.16 865.877C1087.44 864.587 1085.72 864.587 1084.72 865.447C1079.85 869.89 1078.42 875.767 1077.27 881.93C1075.69 890.673 1074.55 899.703 1073.97 908.59C1072.83 927.223 1073.97 945.857 1077.13 964.347C1077.99 963.487 1078.85 962.627 1079.71 961.767C1071.39 959.473 1072.4 977.39 1072.25 981.403C1071.68 995.45 1073.83 1009.5 1077.99 1022.97C1079.13 1022.25 1080.42 1021.54 1081.57 1020.82C1079.71 1018.67 1078.13 1017.95 1075.26 1018.24C1074.12 1018.38 1073.11 1019.1 1073.11 1020.39C1073.54 1042.18 1077.84 1063.53 1085.87 1083.89C1086.87 1083.03 1088.02 1082.31 1089.02 1081.45C1074.69 1074.57 1083 1106.96 1084.15 1111.84C1088.45 1130.47 1096.19 1148.24 1106.51 1164.3C1108.22 1166.88 1111.95 1164.73 1110.37 1162.43Z" fill="#202020"/>
<path d="M1133.16 1019.24C1131.87 1010.07 1131.58 1000.75 1132.73 991.58C1133.02 989.287 1138.46 962.34 1141.19 963.487C1142.62 964.203 1144.34 963.343 1144.48 961.623C1145.34 943.277 1151.07 926.937 1157.81 910.023C1164.55 893.253 1171.14 877.057 1182.32 862.58C1181.31 862.58 1180.31 862.58 1179.31 862.58C1187.48 871.897 1186.47 886.087 1186.9 897.697C1187.48 910.74 1187.91 923.783 1188.05 936.827C1188.34 962.483 1187.91 988.14 1186.76 1013.8C1184.32 1066.26 1178.45 1118.57 1169.56 1170.32C1169.13 1173.04 1173.29 1174.19 1173.72 1171.46C1183.03 1117.57 1188.91 1062.96 1191.35 1008.21C1192.49 980.687 1192.78 953.167 1192.21 925.647C1191.92 911.887 1191.63 898.127 1190.63 884.367C1190.06 875.337 1188.62 866.45 1182.32 859.427C1181.6 858.567 1180.02 858.567 1179.31 859.427C1168.27 873.76 1161.39 889.527 1154.8 906.297C1147.49 924.357 1141.33 941.843 1140.33 961.623C1141.47 961.05 1142.48 960.333 1143.62 959.76C1134.88 955.89 1132.01 974.523 1130.87 979.54C1127.71 993.013 1127.43 1006.63 1129.43 1020.25C1129.29 1023.11 1133.45 1021.97 1133.16 1019.24Z" fill="#202020"/>
<path d="M1082.29 1314.22C1127.14 1328.7 1175.73 1327.98 1220.15 1312.22C1222.73 1311.36 1221.59 1307.2 1219.01 1308.06C1175.3 1323.54 1127.57 1324.26 1083.43 1310.07C1080.71 1309.21 1079.56 1313.36 1082.29 1314.22Z" fill="#202020"/>
<path d="M1213.27 1167.02C1214.99 1190.24 1216.86 1213.46 1218.43 1236.68C1220.01 1260.33 1220.58 1284.27 1216.71 1307.77C1216.28 1310.5 1220.44 1311.64 1220.87 1308.92C1224.74 1285.84 1224.45 1262.62 1222.87 1239.4C1221.3 1215.32 1219.44 1191.1 1217.57 1167.02C1217.43 1164.3 1213.13 1164.3 1213.27 1167.02Z" fill="#202020"/>
<path d="M448.414 1351.06C477.65 1335.44 507.029 1319.81 536.265 1304.19C550.023 1306.48 568.94 1309.49 591.583 1312.65C636.87 1318.95 709.816 1329.13 802.109 1331.85C894.403 1334.58 963.622 1328.7 989.992 1326.12C1053.48 1320.1 1091.89 1311.93 1123.27 1303.47C1151.79 1295.73 1175.3 1287.28 1192.06 1280.83C1205.82 1285.41 1221.15 1291.58 1237.49 1300.03C1246.81 1304.91 1255.41 1309.92 1263 1314.94C1236.06 1322.68 1199.8 1332.57 1156.66 1342.6C1065.8 1363.82 996.154 1373.85 981.537 1376C897.985 1387.9 778.893 1404.67 629.131 1387.32C582.555 1381.73 520.5 1371.56 448.414 1351.06Z" fill="white"/>
<path d="M446.838 1351.2C447.554 1357.22 448.414 1363.1 449.131 1369.12C459.879 1372.13 475.644 1376.43 495.134 1380.73C532.395 1389.04 570.23 1394.78 619.673 1398.65C802.253 1412.98 948.145 1400.22 948.145 1400.22C1021.09 1393.77 1091.89 1387.18 1183.32 1360.52C1217.72 1350.49 1245.81 1340.31 1265.87 1332.43C1264.29 1325.69 1262.72 1318.95 1261.14 1312.22C1255.55 1314.51 1247.24 1317.81 1237.06 1321.53C1167.99 1346.76 1111.09 1355.07 1060.36 1361.24C948.862 1375 893.113 1381.73 811.282 1383.02C718.128 1384.6 593.16 1379.01 446.838 1351.2Z" fill="#202020"/>
<path d="M445.834 1353.93C445.834 1358.51 445.834 1363.1 445.834 1367.69C445.834 1370.41 450.133 1370.41 450.133 1367.69C450.133 1363.1 450.133 1358.51 450.133 1353.93C450.133 1351.06 445.834 1351.06 445.834 1353.93Z" fill="#202020"/>
<path d="M447.41 1371.7C554.465 1400.65 666.249 1404.38 776.456 1405.96C882.364 1407.39 988.988 1402.8 1093.32 1383.45C1152.08 1372.56 1209.98 1356.65 1265.87 1335.01C1268.45 1334 1267.3 1329.85 1264.72 1330.85C1166.12 1369.12 1061.36 1388.61 956.027 1396.78C849.832 1404.95 742.634 1403.09 636.44 1396.64C572.952 1392.63 510.038 1384.31 448.557 1367.69C445.834 1366.83 444.688 1370.98 447.41 1371.7Z" fill="#202020"/>
<path d="M1265.87 1332C1266.73 1325.98 1267.02 1319.81 1266.44 1313.79C1266.16 1311.07 1261.86 1311.07 1262.14 1313.79C1262.57 1319.53 1262.57 1325.26 1261.71 1330.85C1261.28 1333.43 1265.44 1334.72 1265.87 1332Z" fill="#202020"/>
<path d="M449.273 1353.5C479.369 1339.16 508.891 1323.83 537.84 1307.2C540.277 1305.77 538.127 1302.18 535.691 1303.47C506.741 1319.96 477.219 1335.44 447.123 1349.77C444.544 1350.92 446.694 1354.64 449.273 1353.5Z" fill="#202020"/>
<path d="M536.694 1305.19C707.665 1337.73 885.373 1343.75 1057.78 1319.1C1103.64 1312.5 1149.21 1302.33 1191.63 1283.41C1194.21 1282.26 1191.92 1278.53 1189.48 1279.68C1151.36 1296.59 1110.66 1306.48 1069.53 1312.93C1027.68 1319.53 985.405 1323.54 943.128 1326.26C857.284 1331.71 771.01 1330.28 685.452 1322.11C635.866 1317.38 586.71 1310.21 537.84 1301.04C535.117 1300.61 533.971 1304.76 536.694 1305.19Z" fill="#202020"/>
<path d="M1190.77 1282.69C1216.28 1291 1240.21 1302.61 1262.57 1317.38C1264.86 1318.95 1267.01 1315.23 1264.72 1313.65C1242.08 1298.74 1217.71 1286.99 1191.92 1278.53C1189.2 1277.67 1188.05 1281.83 1190.77 1282.69Z" fill="#202020"/>
<path d="M449.56 1351.2C500.149 1368.26 552.888 1376.29 605.914 1380.59C659.656 1384.89 713.828 1386.18 767.714 1386.18C874.768 1386.18 982.109 1378.87 1087.59 1359.66C1147.49 1348.77 1206.82 1334 1264.58 1314.65C1267.16 1313.79 1266.01 1309.64 1263.43 1310.5C1161.82 1344.32 1056.2 1364.1 949.577 1373.85C843.526 1383.6 736.328 1384.17 629.99 1377.86C569.226 1374.14 508.318 1366.54 450.42 1347.05C448.127 1346.19 446.98 1350.34 449.56 1351.2Z" fill="#202020"/>
<path d="M532.108 532.626C707.236 492.063 887.523 483.176 1066.66 481.456C1117.4 480.883 1168.13 481.026 1218.86 481.026C1221.58 481.026 1221.58 476.726 1218.86 476.726C1039.15 476.44 858.574 476.296 680.15 501.093C629.99 508.116 580.261 517.003 530.961 528.47C528.238 529.186 529.385 533.343 532.108 532.626Z" fill="#202020"/>
<path d="M1227.75 477.157C1229.61 543.807 1230.76 621.063 1230.33 706.92C1230.04 756.8 1229.61 733.007 1225.17 940.553C1222.59 1060.09 1221.87 1105.1 1213.41 1174.19C1207.97 1219.19 1201.38 1256.17 1196.5 1281.26C1233.48 1291.58 1268.73 1301.32 1299.69 1309.92C1347.56 1323.25 1360.31 1326.84 1379.37 1329.56C1408.89 1333.57 1444.86 1334.15 1486.43 1325.69C1501.76 1200.13 1510.21 1093.06 1515.09 1011.07C1532.57 722.973 1516.23 590.247 1509.93 543.663C1501.33 480.883 1490.72 429.283 1482.56 393.593C1451.89 399.47 1426.95 405.777 1409.47 410.507C1349.42 426.99 1301.84 446.34 1262 462.68C1247.24 468.843 1235.34 473.86 1227.75 477.157Z" fill="white"/>
<path d="M239.75 396.173C238.604 408.5 237.314 423.693 236.167 436.88C212.377 708.21 200.483 843.947 196.613 931.237C192.6 1024.98 192.314 1160.86 212.234 1329.85C213.811 1333.29 216.677 1338.02 221.836 1341.89C228.572 1346.9 234.734 1346.76 246.916 1350.2C256.518 1352.92 261.534 1355.65 266.12 1357.37C279.304 1362.53 308.827 1368.4 346.375 1366.97C400.26 1364.82 441.677 1348.34 472.06 1335.87C500.579 1324.26 523.366 1311.79 539.13 1302.33C530.245 1222.49 523.652 1138.21 519.926 1049.77C512.331 861.72 519.926 689.003 535.547 535.063C528.955 532.483 519.353 528.9 508.031 524.313C488.541 516.43 441.821 497.367 359.559 457.233C327.027 441.467 286.327 420.97 239.75 396.173Z" fill="white"/>
<path d="M1481.7 393.02C1483.42 402.48 1485.71 415.523 1488.29 431.147C1491.87 453.363 1499.9 505.967 1505.77 575.053C1511.79 647.007 1513.23 708.927 1513.37 758.233C1513.8 858.28 1510.07 931.667 1500.33 1102.81C1497.32 1156.13 1492.88 1234.24 1487.29 1329.56C1493.16 1329.13 1498.89 1328.84 1504.77 1328.41C1507.64 1304.62 1511.51 1269.22 1514.52 1225.93C1516.81 1194.68 1517.81 1171.89 1518.82 1147.38C1523.83 1035.01 1524.69 1036.3 1526.41 990.433C1529.85 899.99 1529.13 830.473 1528.56 767.98C1528.13 724.837 1526.84 683.987 1524.26 602.287C1522.4 546.673 1520.53 497.367 1507.92 433.297C1504.63 416.957 1501.47 403.34 1499.18 394.023C1493.31 393.737 1487.57 393.45 1481.7 393.02Z" fill="#202020"/>
<path d="M217.823 398.753C216.82 403.77 215.244 411.51 213.667 420.97C209.081 448.347 207.935 468.986 207.505 475.723C204.352 524.456 198.046 548.25 188.874 656.467C187.154 676.247 185.865 693.59 183.285 728.42C177.982 799.513 175.403 835.06 173.54 875.193C171.533 920.057 171.247 951.733 170.817 1015.09C170.387 1069.84 170.1 1109.4 171.533 1161.14C172.68 1202.42 174.973 1258.47 180.562 1325.26C192.17 1328.7 203.635 1332.14 215.244 1335.58C215.1 1329.13 214.67 1317.52 213.811 1303.04C210.371 1238.69 204.782 1212.6 203.492 1158.99C203.062 1142.51 203.349 1131.62 203.492 1115.99C205.068 1003.91 203.205 952.737 204.209 879.923C205.928 761.1 213.954 668.22 220.833 589.1C227.282 514.28 234.591 450.21 240.897 400.043C233.014 399.613 225.419 399.183 217.823 398.753Z" fill="#202020"/>
<path d="M1224.31 479.593C1229.61 584.8 1228.89 690.293 1227.46 795.5C1225.88 898.413 1225.17 1001.61 1217.28 1104.38C1212.84 1162.86 1205.82 1221.2 1194.93 1278.96C1194.35 1281.69 1198.51 1282.83 1199.08 1280.11C1218.14 1179.06 1225.17 1076.29 1228.32 973.663C1231.61 868.886 1233.05 763.823 1232.9 658.903C1232.76 599.133 1231.76 539.363 1228.75 479.593C1228.46 476.87 1224.16 476.87 1224.31 479.593Z" fill="#202020"/>
<path d="M1229.61 479.593C1309.15 440.177 1393.56 411.797 1480.69 395.027C1483.42 394.453 1482.27 390.297 1479.55 390.87C1392.13 407.783 1307.29 436.45 1227.46 475.867C1225.02 477.157 1227.17 480.883 1229.61 479.593Z" fill="#202020"/>
<path d="M1479.26 393.737C1502.91 512.847 1510.07 634.537 1509.93 755.797C1509.64 877.057 1502.48 998.03 1496.6 1119.15C1493.16 1188.95 1489.72 1258.61 1486.28 1328.41C1486.14 1331.14 1490.44 1331.14 1490.58 1328.41C1496.74 1204.86 1503.19 1081.31 1508.78 957.61C1514.23 836.35 1517.67 714.803 1509.5 593.687C1504.91 526.177 1496.74 458.953 1483.56 392.733C1482.84 389.867 1478.69 391.013 1479.26 393.737Z" fill="#202020"/>
<path d="M1195.65 1279.82C1202.09 1287.28 1213.56 1288.71 1222.59 1291.43C1234.91 1295.16 1247.38 1298.89 1259.71 1302.61C1284.64 1310.07 1309.44 1317.95 1334.66 1324.26C1383.96 1336.3 1434.55 1338.73 1484.56 1330.13C1487.29 1329.7 1486.14 1325.55 1483.42 1325.98C1434.12 1334.43 1384.24 1332 1335.8 1320.1C1312.73 1314.51 1290.09 1307.34 1267.44 1300.46C1255.98 1297.02 1244.51 1293.58 1233.05 1290.14C1227.32 1288.42 1221.58 1286.7 1215.85 1284.98C1209.83 1283.12 1203.1 1281.83 1198.8 1276.81C1196.79 1274.81 1193.78 1277.82 1195.65 1279.82Z" fill="#202020"/>
<path d="M1482.13 393.88C1487.43 395.17 1492.73 396.46 1498.18 397.75C1500.9 398.467 1502.05 394.31 1499.32 393.593C1494.02 392.303 1488.72 391.013 1483.27 389.723C1480.55 389.15 1479.4 393.307 1482.13 393.88Z" fill="#202020"/>
<path d="M1497.89 396.317C1512.22 454.223 1516.09 514.71 1520.25 574.193C1524.55 634.967 1526.84 695.883 1527.84 756.943C1529.56 878.06 1525.41 999.177 1518.53 1120.15C1514.66 1188.66 1509.79 1257.18 1504.77 1325.69C1504.63 1328.41 1508.93 1328.41 1509.07 1325.69C1518.1 1203.86 1526.27 1082.02 1530.14 959.903C1534.01 838.07 1533.72 715.95 1525.98 594.117C1521.82 527.897 1518.1 459.957 1502.19 395.313C1501.33 392.447 1497.17 393.593 1497.89 396.317Z" fill="#202020"/>
<path d="M1488.58 1330.85C1494.88 1330.28 1501.04 1329.7 1507.35 1329.13C1510.07 1328.84 1510.07 1324.54 1507.35 1324.83C1501.04 1325.4 1494.88 1325.98 1488.58 1326.55C1485.85 1326.84 1485.85 1331.14 1488.58 1330.85Z" fill="#202020"/>
<path d="M531.964 533.917C522.362 633.247 516.63 732.863 514.766 832.623C512.903 932.813 514.91 1033.15 520.929 1133.19C524.225 1189.38 528.954 1245.42 534.687 1301.32C534.974 1304.05 539.273 1304.05 538.986 1301.32C528.668 1202.14 522.219 1102.52 519.639 1002.76C517.059 902.57 518.349 802.237 523.652 702.19C526.661 646.003 530.817 589.96 536.12 533.917C536.55 531.193 532.251 531.193 531.964 533.917Z" fill="#202020"/>
<path d="M242.472 399.613C335.482 451.357 432.075 496.65 531.247 535.207C533.826 536.21 534.973 532.053 532.393 531.05C433.508 492.637 337.345 447.487 244.622 395.887C242.185 394.453 240.036 398.18 242.472 399.613Z" fill="#202020"/>
<path d="M238.031 398.61C222.123 519.87 211.088 641.847 205.069 764.11C199.05 886.373 198.19 1008.78 202.203 1131.04C204.496 1199.7 208.365 1268.36 213.811 1336.87C214.098 1339.59 218.397 1339.59 218.111 1336.87C208.365 1214.89 203.779 1092.49 204.066 970.223C204.353 847.817 209.799 725.553 220.117 603.577C225.993 535.063 233.445 466.837 242.33 398.61C242.617 395.887 238.318 395.887 238.031 398.61Z" fill="#202020"/>
<path d="M213.667 1339.59C293.492 1383.02 389.081 1373.71 470.196 1339.31C494.559 1328.99 518.062 1316.52 540.706 1302.9C542.999 1301.47 540.849 1297.74 538.556 1299.17C463.03 1344.9 374.463 1376.86 285.18 1360.23C260.96 1355.79 237.457 1347.62 215.816 1335.87C213.523 1334.58 211.23 1338.3 213.667 1339.59Z" fill="#202020"/>
<path d="M181.995 1327.7C192.026 1332.43 202.345 1336.44 212.807 1340.02C215.386 1340.88 216.533 1336.73 213.953 1335.87C203.778 1332.43 193.89 1328.56 184.144 1323.97C181.565 1322.82 179.415 1326.55 181.995 1327.7Z" fill="#202020"/>
<path d="M214.957 399.613C199.479 519.727 186.581 640.127 178.126 760.957C169.814 881.213 165.801 1001.76 168.381 1122.3C169.814 1190.53 173.253 1258.75 179.129 1326.69C179.416 1329.42 183.715 1329.42 183.428 1326.69C173.11 1206.15 170.1 1085.18 172.967 964.203C175.69 843.66 184.002 723.26 195.897 603.147C202.632 535.207 210.515 467.267 219.257 399.47C219.687 396.89 215.387 396.89 214.957 399.613Z" fill="#202020"/>
<path d="M217.393 402.623C225.705 400.903 234.017 400.33 242.616 400.76C245.339 400.903 245.339 396.603 242.616 396.46C233.731 396.03 224.988 396.747 216.246 398.467C213.523 399.04 214.67 403.197 217.393 402.623Z" fill="#202020"/>
<path d="M1279.2 489.34C1285.21 655.607 1284.93 822.017 1278.05 988.283C1276.19 1034.87 1273.75 1081.31 1270.74 1127.89C1270.6 1130.61 1274.9 1130.61 1275.04 1127.89C1285.5 961.91 1289.51 795.5 1287.08 629.09C1286.36 582.507 1285.21 535.923 1283.49 489.34C1283.35 486.617 1279.05 486.617 1279.2 489.34Z" fill="#202020"/>
<path d="M1348.7 429.713C1354.43 545.383 1357.3 661.34 1357.16 777.153C1357.16 892.967 1354.29 1008.92 1348.56 1124.59C1345.41 1190.1 1341.25 1255.46 1336.23 1320.82C1336.09 1323.54 1340.39 1323.54 1340.53 1320.82C1349.42 1205.29 1355.44 1089.62 1358.73 973.807C1361.89 857.993 1362.32 742.037 1359.88 626.223C1358.45 560.72 1356.15 495.217 1353 429.713C1352.86 426.99 1348.56 426.99 1348.7 429.713Z" fill="#202020"/>
<path d="M1432.11 404.2C1440.14 524.457 1445.01 645 1446.3 765.687C1447.59 886.803 1445.58 1007.78 1440.14 1128.75C1437.13 1196.55 1432.97 1264.34 1427.67 1332C1427.52 1334.72 1431.82 1334.72 1431.97 1332C1441.14 1211.74 1447.16 1091.2 1449.59 970.653C1452.03 849.68 1451.17 728.563 1446.87 607.447C1444.44 539.65 1441 471.853 1436.41 404.057C1436.27 401.333 1431.97 401.333 1432.11 404.2Z" fill="#202020"/>
<path d="M1264.43 1181.64C1261.14 1219.19 1255.12 1256.46 1246.38 1293.15C1245.8 1295.88 1249.82 1297.02 1250.53 1294.3C1259.42 1257.18 1265.44 1219.62 1268.73 1181.64C1269.02 1178.92 1264.72 1178.92 1264.43 1181.64Z" fill="#202020"/>
<path d="M289.48 427.563C272.282 547.82 264.973 669.367 263.827 790.77C262.824 912.89 267.84 1034.87 275.292 1156.7C279.448 1225.64 284.32 1294.44 289.193 1363.39C289.336 1366.11 293.636 1366.11 293.492 1363.39C284.894 1241.98 276.295 1120.58 271.566 999.033C266.836 877.773 266.12 756.227 273.142 634.967C277.155 566.023 283.747 497.08 293.492 428.71C294.066 426.13 289.91 424.84 289.48 427.563Z" fill="#202020"/>
<path d="M371.885 467.697C360.993 583.94 353.684 700.613 351.248 817.43C348.955 934.103 351.678 1050.78 361.28 1167.16C366.582 1231.81 374.034 1296.16 383.78 1360.23C384.209 1362.96 388.366 1361.81 387.936 1359.09C370.452 1243.56 360.42 1126.89 356.694 1010.07C352.967 894.83 355.117 779.303 361.423 664.207C365.006 598.703 370.022 533.2 376.184 467.84C376.471 464.973 372.171 464.973 371.885 467.697Z" fill="#202020"/>
<path d="M454.432 501.953C440.387 610.457 432.218 719.677 430.068 829.04C427.919 938.403 431.645 1047.91 441.247 1156.84C446.693 1217.62 453.858 1278.1 462.887 1338.45C463.317 1341.17 467.473 1340.02 467.043 1337.3C450.849 1229.23 440.53 1120.44 436.087 1011.36C431.645 902.57 433.221 793.493 440.53 684.703C444.686 623.643 450.705 562.583 458.588 501.81C459.161 499.23 454.861 499.23 454.432 501.953Z" fill="#202020"/>
<path opacity="0.12" d="M1400.01 413.947C1415.92 478.877 1428.81 554.987 1433.11 640.27C1443.86 857.277 1392.84 1034.58 1348.42 1148.39C1317.03 1198.7 1285.79 1249.01 1254.4 1299.32C1284.93 1312.5 1330.21 1327.84 1386.68 1332.43C1425.66 1335.58 1459.48 1332.71 1485.85 1328.41C1486.14 1322.11 1490.87 1226.22 1491.15 1219.91C1506.78 898.7 1507.78 876.77 1508.35 854.697C1510.93 764.827 1510.5 635.827 1495.17 474.863C1489.86 447.487 1484.56 420.11 1479.26 392.877C1453.03 399.757 1426.52 406.78 1400.01 413.947Z" fill="#091520"/>
<path opacity="0.13" d="M399.831 484.037C396.105 499.66 390.516 523.023 383.924 551.547C354.688 678.827 333.191 772.423 321.726 858.567C301.376 1010.36 281.742 1157.42 365.436 1278.1C389.799 1313.22 416.455 1336.87 434.226 1350.92C417.029 1357.65 395.675 1363.82 370.739 1366.83C301.376 1375 245.77 1352.49 218.541 1339.02C208.222 1243.99 201.057 1142.22 198.764 1034.58C193.605 796.36 212.952 582.22 242.474 398.037C294.783 426.703 347.236 455.37 399.831 484.037Z" fill="#091520"/>
<path d="M249.495 329.81C247.632 331.243 249.065 336.833 251.644 346.436C252.648 350.163 253.651 353.03 254.224 354.893C253.077 362.633 252.074 370.373 250.928 378.113C248.635 378.4 242.759 379.69 237.313 384.42C232.297 388.863 230.291 394.023 229.574 396.316C234.16 396.746 239.749 397.75 245.769 399.613C254.511 402.336 261.39 406.063 266.405 409.216C266.405 410.936 266.692 414.233 268.985 416.67C270.992 418.676 273.428 418.963 274.861 419.25C280.02 420.11 286.183 421.256 294.065 422.976C297.504 424.983 303.237 428.28 310.259 432.15C334.049 445.05 342.648 447.2 366.438 459.813C381.772 467.983 380.482 468.27 391.231 473.43C407.712 481.456 421.9 486.186 431.501 488.91C435.514 484.466 441.963 475.866 445.546 463.396C448.412 453.506 448.269 444.906 447.696 439.316C450.132 440.606 454.002 442.04 458.444 441.466C469.909 440.176 477.218 427.133 479.511 417.816C481.518 409.646 479.654 404.486 478.078 394.883C474.495 373.383 471.342 354.176 480.228 341.993C487.68 331.816 503.014 327.086 515.339 313.47C516.486 312.18 518.635 309.743 517.919 308.597C516.629 306.447 506.597 310.173 501.725 312.323C498.572 313.756 474.925 324.65 467.76 349.303C466.613 353.173 466.47 364.353 466.326 386.57C466.183 402.766 466.47 411.94 460.021 417.243C456.724 419.966 451.852 421.543 447.409 420.54C440.817 419.106 437.664 412.656 434.798 408.356C427.345 397.033 416.74 392.303 403.699 385.853C393.524 380.836 384.782 378.973 367.154 375.103C350.53 371.52 345.514 371.95 338.348 366.646C330.323 360.626 325.88 352.17 323.587 347.44C321.294 342.996 317.711 335.973 316.135 325.94C315.275 320.063 315.418 315.906 313.985 315.62C311.406 315.046 310.116 326.943 301.374 331.1C296.071 333.68 292.632 331.243 283.316 331.53C277.297 331.673 270.418 332.963 262.679 336.403C260.1 334.54 252.074 327.946 249.495 329.81Z" fill="#202020"/>
<path d="M253.794 376.966C250.784 353.316 272.281 331.816 296.071 334.253C318.571 336.546 333.475 363.923 332.759 384.42C332.615 387.143 336.915 387.143 337.058 384.42C337.775 361.773 320.864 331.96 296.071 329.953C269.988 327.803 246.198 350.88 249.494 376.966C249.924 379.546 254.223 379.69 253.794 376.966Z" fill="#202020"/>
<path d="M253.365 391.873C262.107 408.93 280.881 420.97 300.515 418.39C318.429 415.953 333.62 401.476 336.343 383.56C336.773 380.836 332.617 379.69 332.187 382.413C329.751 398.753 316.279 411.94 299.942 414.09C282.028 416.526 265.117 405.346 257.091 389.723C255.801 387.286 252.075 389.436 253.365 391.873Z" fill="#202020"/>
<path d="M268.842 412.657C268.412 407.21 283.889 404.917 287.759 404.057C294.781 402.48 301.947 401.62 309.112 401.62C322.441 401.62 335.195 405.06 346.517 412.083C348.81 413.517 351.103 409.79 348.667 408.357C334.049 399.327 316.995 396.173 300.084 397.75C291.198 398.61 282.456 400.473 274.001 403.34C269.415 404.917 263.969 406.923 264.399 412.657C264.686 415.38 269.128 415.38 268.842 412.657Z" fill="#202020"/>
<path d="M330.466 363.063C339.495 373.956 354.113 376.536 367.154 379.403C384.495 383.416 402.409 387 417.6 396.603C448.985 416.383 454.861 459.526 430.068 487.19C428.205 489.196 431.215 492.35 433.078 490.2C455.148 465.69 455.721 428.136 432.934 403.77C420.896 390.87 403.699 384.133 386.931 379.69C369.877 375.246 345.371 374.53 333.332 359.91C331.756 357.903 328.746 360.913 330.466 363.063Z" fill="#202020"/>
<path d="M430.785 438.027C423.619 428.567 411.008 425.27 399.973 429.856C386.358 435.447 385.642 452.217 387.218 464.973C387.505 467.697 391.804 467.697 391.517 464.973C390.228 454.94 390.084 439.46 400.403 434.443C409.288 430 420.897 432.293 426.916 440.32C428.635 442.47 432.362 440.32 430.785 438.027Z" fill="#202020"/>
<path d="M390.945 462.966C383.063 456.946 374.894 451.786 364.719 454.51C363.573 454.796 362.999 456.086 363.286 457.09C365.866 467.123 381.63 471.28 389.942 474.863C402.697 480.453 415.738 485.183 428.923 489.34C431.503 490.2 432.649 486.043 430.07 485.183C419.464 481.886 409.146 478.303 398.827 474.003C393.238 471.71 387.792 469.273 382.346 466.693C377.474 464.4 368.732 461.676 367.299 455.943C366.869 456.803 366.295 457.663 365.866 458.523C374.751 456.086 382.06 461.39 388.652 466.55C390.945 468.413 393.095 464.686 390.945 462.966Z" fill="#202020"/>
<path d="M264.971 412.227C270.561 421.4 281.882 422.977 291.771 424.41C306.389 426.56 321.007 426.56 335.624 424.983C338.347 424.697 338.347 420.397 335.624 420.683C323.873 421.973 312.121 422.26 300.37 421.113C290.481 420.11 274.573 419.537 268.554 410.077C267.264 407.64 263.538 409.79 264.971 412.227Z" fill="#202020"/>
<path d="M231.581 397.606C233.444 387.573 242.186 382.413 251.931 381.983C251.214 381.41 250.498 380.98 249.925 380.406C250.641 383.846 251.644 387.143 253.077 390.296C254.081 392.876 258.237 391.73 257.234 389.15C255.944 385.853 254.941 382.7 254.081 379.26C253.937 378.4 252.934 377.683 252.074 377.683C240.609 378.256 229.718 384.563 227.568 396.46C226.995 399.183 231.151 400.33 231.581 397.606Z" fill="#202020"/>
<path d="M256.516 353.173C254.367 347.01 252.79 340.56 252.217 333.966C252.217 333.393 252.074 332.82 252.074 332.246C251.93 330.956 252.074 331.1 252.647 332.676C253.937 333.536 255.226 334.54 256.516 335.543C258.666 337.406 260.672 339.413 262.392 341.563C264.255 343.713 267.265 340.56 265.402 338.553C262.965 335.686 252.79 323.933 248.491 328.52C246.341 330.813 247.918 336.116 248.347 338.696C249.064 344 250.497 349.303 252.217 354.32C253.363 356.9 257.519 355.896 256.516 353.173Z" fill="#202020"/>
<path d="M304.957 333.106C306.246 330.813 307.536 328.52 308.969 326.226C309.543 325.223 310.116 324.363 310.546 323.36C311.406 321.926 311.406 320.636 313.125 321.066C315.132 321.496 314.415 326.226 314.415 327.946C314.415 330.67 314.559 333.393 314.559 336.116C314.559 338.84 318.858 338.84 318.858 336.116C318.858 331.673 319.001 327.23 318.715 322.786C318.571 319.92 317.568 316.767 314.415 315.763C311.549 314.903 309.543 316.766 308.11 318.916C305.673 322.786 303.524 326.943 301.231 330.813C299.797 333.393 303.524 335.543 304.957 333.106Z" fill="#202020"/>
<path d="M442.25 426.846C443.109 437.74 455.291 441.323 463.747 436.02C476.215 428.28 478.938 410.793 477.361 397.606C475.212 379.546 470.912 362.776 477.075 344.86C482.95 327.803 497.568 313.9 516.056 312.753C518.779 312.61 518.779 308.31 516.056 308.453C490.833 310.03 473.635 331.53 470.052 355.323C467.903 369.513 471.055 382.7 472.919 396.603C474.065 405.776 473.492 414.52 469.336 422.976C467.473 426.56 464.893 430.143 461.453 432.436C456.151 435.733 446.979 434.73 446.406 426.99C446.406 424.123 442.106 423.98 442.25 426.846Z" fill="#202020"/>
<path d="M444.544 434.587C448.986 446.483 464.464 441.18 471.2 434.3C482.235 423.12 479.799 404.487 478.939 390.297C478.795 387.573 474.496 387.573 474.639 390.297C475.213 399.327 476.072 409.073 474.496 418.103C473.779 422.403 472.203 426.417 469.337 429.857C466.184 433.727 452.426 443.473 448.7 433.44C447.697 430.86 443.54 432.007 444.544 434.587Z" fill="#202020"/>
<path d="M516.2 308.31C499.863 314.616 483.382 323.503 476.789 340.703C469.194 360.483 474.64 381.983 474.21 402.48C474.21 405.203 478.509 405.203 478.509 402.48C478.939 384.563 474.64 366.216 478.939 348.443C483.668 328.95 499.863 319.203 517.347 312.466C519.926 311.463 518.78 307.306 516.2 308.31Z" fill="#202020"/>
<path d="M512.903 310.747C497.856 317.627 484.098 329.667 477.075 345.003C473.349 353.03 473.922 361.917 473.922 370.66C473.922 381.84 474.352 393.163 475.212 404.343C475.355 407.067 479.655 407.067 479.512 404.343C478.938 395.313 478.508 386.427 478.365 377.397C478.222 367.937 476.932 356.757 480.515 347.87C486.677 332.82 500.578 321.21 515.053 314.473C517.633 313.326 515.483 309.6 512.903 310.747Z" fill="#202020"/>
<path d="M262.249 362.633C266.262 369.656 276.437 367.22 277.44 359.48C277.584 358.047 275.434 358.19 275.291 359.48C274.574 365.357 267.122 366.503 264.112 361.63C263.396 360.34 261.532 361.486 262.249 362.633Z" fill="white"/>
<path d="M292.632 357.043C297.075 364.64 308.396 361.63 308.54 352.887C308.54 351.453 306.39 351.453 306.39 352.887C306.247 359.623 297.934 361.773 294.495 356.04C293.778 354.75 291.915 355.753 292.632 357.043Z" fill="white"/>
<path d="M284.033 366.503C285.036 370.66 284.176 374.816 281.596 378.256C280.737 379.403 282.6 380.406 283.459 379.403C286.326 375.533 287.186 370.66 286.182 365.93C285.752 364.64 283.603 365.213 284.033 366.503Z" fill="white"/>
<path d="M284.892 366.36C284.462 371.806 287.472 376.966 292.488 379.26C293.778 379.833 294.781 377.97 293.634 377.396C289.335 375.39 286.612 371.09 287.042 366.36C287.042 364.926 284.892 364.926 284.892 366.36Z" fill="white"/>
<path d="M249.924 379.116C262.536 378.113 270.561 388.433 279.017 396.03C280.02 396.89 281.596 395.456 280.593 394.453C271.708 386.426 263.109 375.963 249.924 376.823C248.635 376.966 248.635 379.116 249.924 379.116Z" fill="white"/>
<path d="M273.428 404.343C289.623 394.023 308.827 390.583 327.601 394.74C328.89 395.026 329.464 393.02 328.174 392.733C308.827 388.576 289.05 392.016 272.425 402.623C271.135 403.196 272.282 405.06 273.428 404.343Z" fill="white"/>
<path d="M314.129 423.98C327.458 424.84 340.069 420.683 350.244 411.94C351.247 411.08 349.814 409.503 348.668 410.363C338.922 418.676 326.884 422.69 314.129 421.83C312.84 421.83 312.84 423.98 314.129 423.98Z" fill="white"/>
<path d="M310.259 322.213C307.106 327.516 306.389 333.68 308.252 339.556C308.682 340.846 310.689 340.273 310.259 338.983C308.539 333.68 309.112 328.09 311.979 323.36C312.838 322.07 310.975 320.923 310.259 322.213Z" fill="white"/>
<path d="M253.508 335.543C256.948 337.693 259.097 340.99 259.957 344.86C260.244 346.15 262.25 345.576 261.964 344.286C260.961 339.843 258.381 336.116 254.511 333.68C253.365 332.963 252.362 334.826 253.508 335.543Z" fill="white"/>
<path d="M329.32 358.476C332.043 361.773 335.196 364.64 338.779 366.79C339.925 367.506 341.072 365.643 339.926 364.926C336.486 362.776 333.333 360.053 330.897 356.9C329.894 355.896 328.46 357.473 329.32 358.476Z" fill="white"/>
<path d="M417.744 428.853C414.734 421.256 400.26 426.416 395.53 429.426C387.075 435.016 383.349 445.48 386.502 455.083C386.932 456.373 388.938 455.8 388.508 454.51C386.072 446.913 388.078 438.743 394.097 433.153C396.677 430.716 400.116 428.996 403.556 428.136C405.992 427.42 414.304 425.843 415.594 429.283C416.167 430.716 418.174 430.143 417.744 428.853Z" fill="white"/>
<path d="M388.221 455.226C377.043 450.496 365.148 450.066 353.54 453.65C352.25 454.08 352.823 456.086 354.113 455.656C365.434 452.073 376.756 452.646 387.648 457.233C388.938 457.806 389.511 455.656 388.221 455.226Z" fill="white"/>
<path d="M781.901 1051.35C776.025 1065.4 776.026 1075.86 775.166 1102.81C774.162 1136.06 771.296 1169.17 771.01 1202.28C770.723 1230.23 770.293 1272.51 769.146 1327.55C815.006 1330.13 865.739 1330.71 920.771 1327.98C973.223 1325.4 1021.66 1320.1 1065.37 1313.51C1044.74 1243.7 1031.12 1192.82 1021.38 1153.4C1016.22 1132.33 1008.62 1100.8 987.698 1063.96C976.233 1043.75 964.338 1028.56 955.596 1018.38C953.303 1016.38 902.714 973.806 844.242 993.873C841.376 995.02 798.812 1010.5 781.901 1051.35Z" fill="#FF7052"/>
<path d="M866.312 1134.91C875.914 1151.97 885.516 1169.03 894.975 1186.08C896.265 1188.52 899.991 1186.37 898.701 1183.93C889.099 1166.88 879.497 1149.82 870.038 1132.76C868.749 1130.33 865.023 1132.48 866.312 1134.91Z" fill="#C64F4F"/>
<path d="M865.166 1134.05C887.236 1161.57 899.991 1192.96 906.87 1227.36C913.319 1259.9 917.475 1292.87 919.911 1325.98C920.054 1328.7 924.354 1328.7 924.21 1325.98C921.631 1292.01 917.331 1258.04 910.739 1224.64C903.86 1190.1 890.389 1158.56 868.319 1131.04C866.599 1128.75 863.446 1131.9 865.166 1134.05Z" fill="#C64F4F"/>
<path opacity="0.19" d="M899.703 990.577C904.719 1000.61 911.885 1015.37 919.91 1033.15C943.27 1085.03 967.49 1139.79 980.388 1207.15C985.691 1234.39 990.707 1273.8 988.557 1322.97C1000.6 1322.39 1013.35 1321.39 1026.68 1319.96C1040.01 1318.52 1052.76 1316.8 1064.8 1314.8C1061.07 1302.18 1055.05 1282.12 1048.32 1257.32C1029.54 1187.95 1026.96 1166.3 1010.91 1120.58C999.019 1086.61 987.984 1063.53 972.076 1041.46C957.745 1021.54 944.273 1009.07 927.219 1000.32C916.614 994.876 906.725 992.153 899.703 990.577Z" fill="#091520"/>
<path opacity="0.11" d="M865.451 1135.63C871.04 1156.56 875.913 1181.5 878.206 1209.59C882.219 1258.18 877.059 1299.6 870.754 1330.56C887.235 1329.56 903.572 1328.56 920.053 1327.55C918.334 1295.02 914.607 1267.64 911.025 1246.86C901.996 1193.97 892.537 1174.33 884.942 1161.72C877.776 1150.11 870.61 1141.36 865.451 1135.63Z" fill="#091520"/>
<path d="M681.87 807.11C677.14 810.263 674.274 816.283 668.685 828.18C664.099 837.927 661.949 845.523 658.51 856.847C649.051 888.953 650.054 883.506 646.758 895.69C642.459 911.886 634.72 940.267 630.421 977.677C626.264 1013.94 627.124 1041.89 627.268 1048.63C628.844 1091.2 636.296 1122.87 641.312 1143.23C650.198 1179.78 662.093 1210.16 685.739 1270.79C690.898 1283.84 695.198 1294.59 698.207 1302.04C696.058 1302.33 692.618 1302.76 688.462 1303.33C666.822 1305.91 663.812 1305.34 655.07 1307.2C643.892 1309.64 633.86 1312.07 629.991 1320.53C628.271 1324.4 627.554 1329.85 629.704 1331.71C632.427 1334 637.729 1328.84 646.901 1325.83C654.64 1323.4 661.519 1323.54 666.249 1324.26C662.523 1331.57 660.373 1338.16 659.083 1342.89C655.93 1353.78 653.494 1362.67 657.507 1368.98C659.513 1372.13 663.382 1375 666.535 1374.14C668.255 1373.71 669.832 1372.13 674.131 1360.81C678.287 1349.48 678.574 1345.9 682.013 1341.46C685.023 1337.73 688.462 1335.72 690.755 1334.58C689.609 1338.16 688.319 1343.46 687.746 1349.91C687.459 1353.78 687.029 1357.37 687.746 1361.95C688.319 1366.11 689.609 1375 696.201 1379.87C697.347 1380.73 702.077 1384.31 704.943 1382.45C707.379 1381.02 706.663 1377 707.666 1364.1C708.526 1353.21 709.386 1350.2 710.102 1348.48C711.965 1343.46 714.832 1339.88 716.981 1337.73C716.265 1348.05 716.408 1356.65 716.695 1362.96C717.268 1373.13 718.271 1377.72 721.567 1380.59C723.43 1382.16 726.583 1383.74 729.163 1382.59C731.742 1381.45 732.602 1377.86 733.319 1373.42C736.472 1356.65 734.609 1351.78 738.192 1343.32C739.625 1340.02 741.201 1336.01 745.071 1333.14C753.239 1327.12 764.848 1330.71 766.424 1331.14C773.303 1333.29 775.883 1337.01 779.322 1335.44C782.188 1334.15 783.765 1329.99 783.908 1326.55C784.052 1318.09 774.736 1311.64 766.711 1306.34C762.698 1303.62 756.679 1300.03 748.653 1297.17C741.631 1283.26 732.746 1263.05 725.437 1237.4C720.564 1220.2 718.271 1207.01 716.121 1194.54C708.526 1150.82 711.249 1134.05 702.793 1090.62C700.787 1080.16 698.781 1071.85 697.634 1067.12C698.207 1059.95 699.211 1048.77 700.644 1035.15C705.373 990.72 708.526 962.913 718.128 930.233C725.723 904.577 733.462 883.506 733.462 883.506C743.207 857.276 746.36 853.693 745.214 845.236C741.201 818.576 699.497 795.356 681.87 807.11Z" fill="white"/>
<path d="M670.835 820.727C645.325 879.637 629.274 942.56 625.835 1006.77C622.252 1072.28 633.574 1136.35 654.784 1198.27C666.822 1233.67 681.44 1268.07 696.344 1302.47C697.491 1305.05 701.074 1302.76 700.07 1300.32C674.274 1240.69 649.051 1180.21 637.013 1116.28C625.118 1053.21 627.554 987.997 641.312 925.36C649.051 890.243 660.23 855.986 674.561 823.02C675.564 820.44 671.981 818.147 670.835 820.727Z" fill="#202020"/>
<path d="M724.291 902.57C706.233 957.18 696.775 1014.37 695.771 1071.85C695.771 1074.57 700.071 1074.57 700.071 1071.85C701.074 1014.66 710.533 958.04 728.447 903.716C729.307 901.136 725.151 899.99 724.291 902.57Z" fill="#202020"/>
<path d="M680.725 1045.76C693.479 1063.53 698.639 1084.75 701.648 1105.96C704.801 1127.6 706.234 1149.53 709.387 1171.18C715.693 1215.18 726.011 1259.04 746.792 1298.46C748.081 1300.89 751.808 1298.74 750.518 1296.31C728.878 1255.31 718.702 1209.59 712.683 1164.01C707.381 1124.02 708.957 1077.72 684.451 1043.61C682.874 1041.46 679.148 1043.61 680.725 1045.76Z" fill="#202020"/>
<path d="M695.772 1300.46C682.444 1301.18 669.116 1302.47 656.074 1304.91C646.759 1306.77 636.87 1309.78 630.421 1317.23C626.695 1321.68 621.966 1332.28 630.135 1335.29C633.717 1336.58 636.87 1334.15 639.88 1332.43C647.332 1328.13 655.071 1323.68 663.956 1326.12C666.679 1326.84 667.826 1322.68 665.103 1321.96C657.794 1319.96 651.201 1321.68 644.609 1324.97C642.603 1325.98 640.74 1326.98 638.877 1328.13C637.73 1328.7 636.727 1329.42 635.58 1330.13C634.291 1327.84 632.857 1325.55 631.568 1323.25C631.854 1319.67 639.02 1315.51 641.6 1314.08C648.622 1310.35 656.791 1309.06 664.53 1307.92C674.991 1306.34 685.453 1305.34 695.915 1304.76C698.638 1304.62 698.638 1300.32 695.772 1300.46Z" fill="#202020"/>
<path d="M684.019 1313.22C672.697 1315.08 663.382 1322.82 659.082 1333.29C654.496 1344.18 650.627 1360.38 655.929 1371.56C659.942 1380.01 669.831 1383.02 673.557 1372.7C675.85 1366.25 675.42 1359.23 677.713 1352.78C680.579 1344.75 685.452 1337.87 692.617 1333.14C694.91 1331.57 692.761 1327.84 690.468 1329.42C683.732 1333.86 678.716 1339.88 675.42 1347.19C673.7 1350.92 672.41 1354.79 671.55 1358.8C670.834 1362.1 670.404 1378.72 662.522 1373.85C658.079 1371.13 657.649 1362.38 657.792 1357.94C658.079 1351.35 659.799 1343.75 661.949 1337.44C665.531 1326.84 673.987 1319.24 685.022 1317.38C687.888 1316.95 686.742 1312.79 684.019 1313.22Z" fill="#202020"/>
<path d="M697.491 1323.83C688.606 1329.56 685.453 1342.03 684.593 1352.06C683.733 1362.81 686.743 1374.42 694.768 1382.02C699.497 1386.46 706.806 1388.76 708.096 1380.44C710.246 1366.54 704.657 1346.9 719.848 1338.59C722.284 1337.3 720.134 1333.57 717.698 1334.86C712.252 1337.87 708.813 1342.75 706.663 1348.62C703.653 1357.22 705.373 1365.97 704.083 1374.85C703.51 1378.87 702.364 1383.17 697.921 1379.01C696.345 1377.58 694.911 1375.71 693.765 1373.85C691.042 1369.55 689.466 1364.68 689.036 1359.66C688.032 1349.63 690.612 1333.57 699.784 1327.55C701.934 1325.98 699.784 1322.25 697.491 1323.83Z" fill="#202020"/>
<path d="M717.841 1335.29C715.118 1345.61 712.539 1356.36 714.258 1367.11C714.975 1372.27 717.984 1384.89 724.577 1386.18C732.029 1387.61 735.039 1374.42 735.755 1369.55C737.332 1358.94 735.325 1346.19 743.637 1338.02C745.644 1336.01 742.634 1333 740.628 1335.01C730.596 1344.9 734.035 1359.23 731.026 1371.84C730.023 1376.43 727.156 1383.31 722.427 1378.01C719.847 1375.28 719.131 1369.98 718.558 1366.4C717.125 1356.36 719.561 1346.33 722.141 1336.58C722.714 1333.86 718.558 1332.71 717.841 1335.29Z" fill="#202020"/>
<path d="M748.797 1300.89C757.253 1304.33 765.995 1308.06 772.587 1314.65C775.596 1317.66 779.323 1322.25 780.183 1326.55C782.332 1338.45 773.447 1330.85 770.151 1329.42C761.122 1325.4 743.208 1328.27 738.049 1337.44C736.759 1339.88 740.485 1342.03 741.775 1339.59C744.498 1334.58 751.95 1333.29 757.109 1332.57C760.262 1332.14 763.845 1331.85 766.854 1332.71C770.294 1333.72 772.444 1336.73 775.74 1337.73C780.469 1339.16 784.052 1335.87 784.768 1331.28C786.058 1323.83 779.609 1315.51 774.593 1310.64C767.571 1303.9 758.542 1300.18 749.657 1296.59C747.364 1295.73 746.361 1299.89 748.797 1300.89Z" fill="#202020"/>
<path opacity="0.13" d="M719.848 856.273C703.367 857.276 693.479 899.416 688.033 922.78C681.87 949.01 676.281 985.13 677.428 1037.73C678.431 1084.75 684.45 1120.58 686.456 1133.05C695.485 1186.66 709.673 1231.66 723.574 1266.92C728.16 1279.82 732.603 1292.72 737.189 1305.48C734.609 1316.09 732.03 1326.98 729.593 1338.3C726.441 1353.21 723.574 1367.83 721.281 1381.88C724.004 1382.16 727.73 1382.02 730.31 1379.44C733.606 1376.14 733.176 1370.84 733.32 1366.25C733.463 1361.95 733.893 1341.17 743.208 1333.43C748.941 1328.7 758.113 1328.7 764.418 1330.99C770.868 1333.43 773.734 1338.16 778.033 1336.73C781.329 1335.72 783.622 1331.71 784.052 1328.56C785.485 1318.09 765.422 1307.34 762.125 1305.62C755.676 1302.18 752.667 1301.75 748.511 1297.45C743.351 1292.01 741.632 1285.56 740.915 1282.69C729.02 1237.4 723.144 1240.26 715.119 1188.23C709.1 1148.96 712.969 1151.25 706.807 1120.01C702.507 1097.93 698.925 1088.9 697.778 1069.84C696.488 1048.91 698.925 1032.57 701.504 1018.1C712.253 958.9 732.89 887.233 737.906 870.176C733.32 863.01 727.014 855.843 719.848 856.273Z" fill="#091520"/>
<path d="M1012.35 267.03C1007.9 266.886 1004.46 274.913 1003.6 277.063C1002.32 280.216 1000.31 286.38 1001.74 295.123C1001.74 295.123 1002.6 301.143 1005.47 337.55C1006.18 345.72 1006.33 357.616 1004.18 372.523C998.446 388.29 993 400.616 989.274 408.643C976.662 435.59 968.207 446.34 950.579 480.453C943.987 493.21 943.414 495.216 935.675 510.983C916.328 550.113 902.14 574.623 887.665 600.853C874.91 623.786 856.996 657.47 835.929 700.756C834.926 704.483 829.91 724.406 841.519 741.893C853.843 760.383 879.64 768.696 904.576 760.67C908.446 755.223 913.891 746.766 918.907 735.73C923.78 724.98 926.073 716.666 927.649 711.363C929.226 706.06 935.532 688.143 948.286 652.023C952.299 640.843 957.172 627.513 967.06 601.426C982.108 561.436 989.56 541.513 994.576 529.043C1005.9 500.663 1014.5 481.026 1031.41 442.9C1040.29 422.833 1051.18 398.61 1063.8 371.09C1071.11 366.933 1081.14 360.483 1091.89 351.166C1107.36 337.836 1115.1 326.513 1130.01 305.013C1139.61 290.966 1146.92 278.64 1144.91 266.313C1144.62 264.593 1143.91 259.576 1141.18 258.86C1137.75 257.856 1133.45 264.736 1128.72 270.756C1123.84 276.92 1116.54 284.946 1105.64 293.26C1109.37 282.94 1113.1 274.913 1115.68 269.61C1121.55 257.57 1126.42 249.83 1129.43 236.5C1132.73 222.31 1129.72 219.73 1128.86 219.013C1124.99 216.146 1118.4 221.593 1114.53 218.44C1111.09 215.43 1114.1 208.836 1111.38 207.26C1108.65 205.683 1102.63 210.413 1098.33 215.43C1090.88 224.03 1089.16 232.343 1086.44 240.37C1083.86 248.253 1079.13 259.003 1070.25 270.9C1068.1 271.186 1065.23 271.33 1063.94 269.61C1062.51 267.603 1064.51 264.306 1066.38 259.003C1066.81 257.713 1066.52 258.43 1069.53 245.243C1070.68 240.226 1072.82 230.91 1074.54 223.456C1076.98 212.706 1078.13 208.263 1075.83 203.533C1075.4 202.53 1073.54 198.66 1070.82 198.516C1067.67 198.373 1065.23 203.39 1063.37 207.26C1055.77 222.883 1051.9 230.766 1050.9 233.49C1045.88 247.106 1039.15 267.89 1038.14 275.056C1038 275.916 1037.71 278.926 1036.28 282.796C1035.56 284.66 1035.13 285.376 1034.7 286.523C1031.12 294.55 1034.13 299.853 1030.4 302.72C1029.97 303.006 1027.82 304.583 1026.11 304.01C1024.24 303.436 1023.38 301 1022.38 292.83C1020.95 281.65 1021.81 278.353 1019.23 273.48C1017.51 271.33 1015.36 267.173 1012.35 267.03Z" fill="white"/>
<path d="M1005.47 333.393C1006.47 322.93 1004.89 312.753 1004.32 302.29C1004.03 297.273 1004.03 292.113 1004.75 287.096C1005.18 284.23 1005.75 281.363 1006.61 278.64C1008.05 274.483 1008.19 271.043 1012.78 270.9C1017.08 270.756 1016.79 273.336 1017.51 276.92C1018.22 280.073 1018.37 283.37 1018.51 286.523C1018.8 290.966 1018.94 295.553 1019.94 299.853C1020.95 304.296 1023.67 308.023 1028.68 306.446C1031.26 305.586 1030.26 301.43 1027.54 302.29C1022.52 303.723 1022.95 286.81 1022.67 283.943C1022.24 279.356 1021.81 274.626 1020.09 270.326C1017.65 264.306 1012.06 261.296 1007.33 266.886C1001.17 274.053 999.879 286.953 999.879 295.84C999.879 308.453 1002.32 320.78 1001.17 333.393C1001.03 336.116 1005.32 336.116 1005.47 333.393Z" fill="#202020"/>
<path d="M1030.41 304.726C1037.57 290.823 1039.72 275.056 1043.88 260.15C1048.32 244.096 1053.91 228.33 1062.22 213.996C1064.08 210.843 1065.95 206.4 1068.67 203.963C1073.97 199.09 1073.97 208.407 1073.54 212.42C1072.68 221.307 1070.39 230.336 1068.38 239.08C1066.52 247.106 1063.94 254.847 1062.08 262.873C1061.07 267.317 1061.07 271.186 1064.23 274.626C1066.09 276.633 1069.1 273.623 1067.24 271.616C1063.65 267.746 1067.38 260.006 1068.53 255.85C1069.82 251.12 1071.11 246.39 1072.11 241.66C1074.12 232.916 1076.12 224.03 1077.41 215C1078.13 210.27 1079.13 201.956 1074.98 198.373C1071.39 195.363 1067.81 198.23 1065.37 201.096C1054.91 214.14 1048.46 231.34 1043.3 247.107C1037.43 265.31 1035.56 285.663 1026.68 302.72C1025.39 305.013 1029.12 307.163 1030.41 304.726Z" fill="#202020"/>
<path d="M1065.23 275.057C1069.53 275.487 1071.11 272.333 1073.11 268.893C1076.26 263.447 1079.13 257.713 1081.85 252.123C1087.16 241.23 1090.88 229.333 1097.33 219.157C1098.76 216.863 1100.48 213.997 1102.78 212.277C1104.64 210.127 1107.08 209.41 1110.23 210.413C1110.66 212.42 1110.95 214.427 1110.95 216.433C1111.09 223.457 1108.8 230.48 1106.36 237.073C1101.49 250.117 1096.04 263.017 1090.74 276.06C1089.74 278.64 1093.89 279.787 1094.9 277.207C1097.9 269.753 1128.86 204.393 1108.65 203.963C1104.64 203.82 1100.05 208.837 1097.76 211.56C1093.75 216.29 1090.88 221.737 1088.3 227.327C1085.29 234.063 1082.57 240.8 1079.42 247.393C1077.55 251.407 1075.4 255.563 1073.4 259.433C1072.11 262.013 1068.96 270.9 1065.37 270.613C1062.51 270.47 1062.51 274.77 1065.23 275.057Z" fill="#202020"/>
<path d="M1115.96 222.31C1117.54 213.996 1126.57 219.73 1127.72 225.033C1128.72 229.476 1127 233.92 1125.57 238.076C1123.42 244.383 1120.98 250.546 1118.4 256.566C1113.38 268.32 1107.51 279.5 1100.92 290.536C1099.48 292.973 1103.21 295.123 1104.64 292.686C1110.8 282.51 1116.25 271.903 1121.12 261.153C1125.28 251.836 1130.3 241.516 1131.87 231.34C1132.87 224.89 1131.01 216.576 1123.85 214.283C1118.54 212.563 1112.81 215.86 1111.81 221.306C1111.38 223.886 1115.53 225.033 1115.96 222.31Z" fill="#202020"/>
<path d="M1107.65 294.406C1113.1 288.243 1118.4 282.08 1123.84 275.916C1126.71 272.62 1129.29 269.036 1132.44 266.17C1133.45 265.31 1134.45 264.593 1135.31 263.733C1137.75 264.593 1140.18 265.453 1142.76 266.313C1143.48 267.603 1141.76 271.33 1141.33 272.476C1136.89 286.093 1130.44 298.993 1122.84 311.033C1107.51 335.256 1086.44 355.61 1061.79 370.373C1059.35 371.806 1061.65 375.533 1063.94 374.1C1094.61 355.753 1119.83 328.806 1135.74 296.843C1139.61 289.103 1143.33 280.933 1145.77 272.62C1147.2 267.746 1148.06 261.153 1142.47 258.573C1137.03 255.993 1131.3 261.01 1127.86 264.593C1119.69 273.05 1112.24 282.51 1104.5 291.396C1102.78 293.403 1105.79 296.413 1107.65 294.406Z" fill="#202020"/>
<path d="M1001.74 328.95C1002.75 342.137 1003.75 355.61 1001.6 368.797C999.45 381.84 994.004 393.88 987.985 405.633C975.803 429.427 963.048 452.933 950.58 476.583C925.644 523.883 900.707 571.04 875.771 618.34C861.44 645.43 847.108 672.663 832.777 699.753C831.487 702.19 835.214 704.34 836.503 701.903C887.953 604.293 940.405 507.113 990.994 408.93C997.013 397.32 1002.6 385.423 1005.04 372.667C1007.91 358.19 1006.9 343.57 1005.76 328.95C1005.9 326.227 1001.6 326.227 1001.74 328.95Z" fill="#202020"/>
<path d="M1061.5 369.37C1015.64 466.263 975.659 565.45 940.404 666.643C930.085 696.027 919.767 725.41 907.299 753.933C906.152 756.513 909.878 758.663 911.025 756.083C932.378 707.493 947.999 656.61 966.343 607.017C985.117 555.99 1005.47 505.393 1027.11 455.513C1039.43 427.277 1052.04 399.327 1065.23 371.52C1066.38 369.083 1062.65 366.933 1061.5 369.37Z" fill="#202020"/>
<path opacity="0.1" d="M1126.28 220.59C1120.41 219.73 1112.52 243.81 1107.94 255.85C1094.04 292.83 1082.28 297.13 1052.48 347.296C1041.44 365.786 1026.25 393.593 1010.92 429.856C965.055 526.463 919.338 623.213 873.479 719.82C884.657 733.436 895.692 747.196 906.87 760.813C912.459 744.903 920.628 721.54 930.803 693.303C949.291 642.42 973.224 576.916 1007.05 497.223C1020.52 465.69 1039.15 423.12 1063.08 373.096C1069.67 368.94 1078.85 362.49 1088.88 353.603C1102.35 341.85 1120.12 325.94 1132.3 299.996C1136.17 291.97 1141.04 279.643 1143.62 263.446C1141.76 262.586 1139.04 261.583 1136.03 262.156C1130.87 263.16 1128.14 268.176 1126 271.616C1117.68 284.373 1105.5 292.83 1103.92 291.826C1103.07 291.11 1105.5 286.953 1112.09 273.48C1125.57 245.816 1119.98 253.126 1125.28 243.81C1128.29 238.506 1131.3 233.92 1130.29 228.043C1130.29 225.463 1128.72 221.02 1126.28 220.59Z" fill="#091520"/>
<path opacity="0.13" d="M1117.54 318.343C1110.37 322.93 1100.2 329.666 1088.59 338.553C1075.26 348.586 1060.93 359.48 1048.89 373.24C1032.56 391.873 1025.39 410.363 1021.09 421.113C981.68 521.733 934.817 630.953 921.488 661.34C914.18 677.966 902.715 703.05 887.523 733.15C894.402 742.18 901.425 751.21 908.304 760.24C928.081 699.896 950.868 636.686 976.95 571.183C1005.04 500.806 1034.13 435.016 1063.37 373.813C1071.25 368.51 1080.14 361.773 1089.16 353.03C1101.92 340.846 1111.09 328.52 1117.54 318.343Z" fill="#091520"/>
<path d="M736.473 733.293C731.17 736.877 719.275 745.19 707.093 758.663C694.482 772.567 687.173 785.61 681.154 796.647C676.425 805.103 672.985 812.556 670.549 818.003C674.275 825.17 680.294 836.207 688.606 849.393C703.367 872.757 714.832 885.37 734.609 910.74C742.922 921.347 754.96 937.257 769.291 957.323C771.584 968.073 773.59 979.397 775.31 991.293C778.75 1015.66 780.039 1038.31 780.039 1058.66C785.342 1064.39 794.514 1072.71 807.985 1078.58C830.342 1088.47 850.693 1085.61 861.298 1083.89C884.801 1080.3 900.852 1069.84 911.887 1062.53C931.951 1049.34 945.565 1033.58 954.594 1020.53C952.731 998.173 950.295 975.097 947.285 951.16C944.705 930.807 941.839 911.026 938.686 891.82C938.4 876.77 936.967 856.273 932.094 832.48C928.081 812.557 923.209 789.337 908.734 761.817C890.677 727.56 868.177 706.777 859.435 699.18C851.696 692.443 844.673 687.427 839.514 683.843C818.591 697.173 800.533 705.486 788.208 710.503C765.278 719.963 754.53 721.397 736.473 733.293Z" fill="white"/>
<path d="M672.842 818.577C677.284 801.663 689.609 785.897 700.214 772.137C711.393 757.803 724.004 744.76 739.052 734.297C741.345 732.72 739.195 728.993 736.902 730.57C721.425 741.32 708.383 754.65 696.918 769.413C685.883 783.603 673.415 799.657 668.829 817.287C668.112 820.153 672.268 821.157 672.842 818.577Z" fill="#202020"/>
<path d="M669.69 820.01C699.212 871.61 734.18 920.057 773.878 964.347C775.741 966.353 778.75 963.343 776.887 961.336C737.476 917.333 702.795 869.173 673.416 817.86C671.983 815.423 668.256 817.573 669.69 820.01Z" fill="#202020"/>
<path d="M790.931 712.51C806.982 701.187 824.609 692.73 843.383 687.283C846.106 686.567 844.959 682.41 842.237 683.127C823.033 688.717 805.119 697.317 788.781 708.783C786.488 710.36 788.638 714.087 790.931 712.51Z" fill="#202020"/>
<path d="M839.801 688.43C908.304 736.16 937.683 819.867 934.387 900.85C934.243 903.573 938.543 903.573 938.686 900.85C942.126 818.147 911.743 733.293 841.95 684.703C839.801 683.127 837.651 686.853 839.801 688.43Z" fill="#202020"/>
<path d="M764.561 955.89C772.013 971.226 772.873 990.29 774.45 1006.92C776.169 1023.83 776.743 1040.89 776.743 1057.94C776.743 1060.67 781.042 1060.67 781.042 1057.94C781.185 1039.02 780.325 1020.1 778.176 1001.33C776.456 985.416 775.309 968.216 768.287 953.596C766.997 951.16 763.414 953.31 764.561 955.89Z" fill="#202020"/>
<path d="M779.466 1058.8C800.963 1085.18 837.651 1092.63 869.61 1084.46C887.38 1079.87 903.861 1071.13 918.622 1060.24C933.384 1049.34 947.428 1036.73 955.74 1020.1C957.03 1017.67 953.304 1015.52 952.014 1017.95C943.989 1033.86 930.517 1046.05 916.33 1056.51C902.572 1066.69 887.237 1075 870.613 1079.73C839.371 1088.47 803.399 1081.74 782.332 1055.79C780.756 1053.64 777.746 1056.65 779.466 1058.8Z" fill="#202020"/>
<path d="M935.963 894.4C942.985 936.397 949.864 978.393 952.3 1020.82C952.444 1023.54 956.743 1023.54 956.6 1020.82C954.02 977.963 947.141 935.536 940.119 893.253C939.689 890.53 935.533 891.677 935.963 894.4Z" fill="#202020"/>
<path opacity="0.13" d="M796.377 706.776C812.285 725.553 834.068 754.793 852.269 794.353C878.925 852.26 884.228 902.283 888.24 944.853C891.393 977.246 893.113 1022.4 886.807 1076.29C898.989 1070.99 916.186 1061.81 932.811 1045.9C941.983 1037.02 948.862 1028.13 954.021 1020.39C949.291 980.4 944.562 940.266 939.833 900.276C940.693 867.31 935.533 840.65 930.661 822.59C915.613 766.69 886.664 730.713 876.919 719.39C863.591 703.766 850.549 692.3 840.947 684.703C826.043 692.156 811.281 699.466 796.377 706.776Z" fill="#091520"/>
<path opacity="0.14" d="M903.144 756.943C900.564 757.66 906.583 781.023 912.316 815.566C912.316 815.566 921.058 868.026 922.921 918.766C924.211 952.306 922.491 1001.33 907.443 1062.24C914.322 1058.8 922.778 1053.79 931.52 1046.76C942.125 1038.16 949.72 1029.13 954.88 1021.97C953.017 964.203 948.144 934.246 943.558 917.333C942.698 914.036 940.405 906.296 938.542 895.403C935.103 875.05 936.822 866.306 934.959 849.393C933.526 835.92 930.803 827.033 925.787 810.55C918.192 785.753 906.01 756.083 903.144 756.943Z" fill="#091520"/>
<path d="M734.465 497.51C725.006 502.813 712.968 510.84 701.36 523.023C677.283 548.68 669.544 577.347 666.821 591.537C664.672 591.25 658.796 590.82 654.067 594.547C647.044 599.993 646.901 610.743 649.624 617.05C650.627 619.343 652.06 621.207 655.07 624.933C658.653 629.377 660.946 632.1 664.672 633.677C666.248 634.393 669.831 635.397 674.99 634.25C676.567 638.98 679.146 645.573 683.016 653.17C688.032 662.916 695.627 677.393 710.818 690.006C715.261 693.733 722.14 698.607 731.455 703.05C734.895 707.493 741.201 716.81 741.917 729.423C743.35 751.64 727.156 770.13 711.822 778.3C685.165 792.49 656.216 778.3 645.611 772.997C639.879 770.13 611.073 755.223 599.035 722.543C584.417 683.127 603.477 643.71 614.799 620.203C626.264 596.553 631.566 598.13 640.309 575.053C651.917 544.523 645.754 533.773 659.083 510.41C664.242 501.237 674.704 482.89 696.63 474.29C715.404 466.98 732.745 470.707 740.197 472.857C746.36 469.13 757.252 463.827 771.01 463.827C803.685 463.827 824.608 494.787 829.624 502.24C844.529 524.17 836.647 530.907 849.975 561.723C866.742 600.567 883.08 598.273 898.128 634.68C905.437 652.453 917.618 681.837 904.147 709.93C890.246 738.883 858.573 747.34 854.561 748.343C847.252 750.207 827.618 755.08 807.984 744.617C806.121 743.613 781.471 730.14 779.465 707.063C778.748 698.607 781.185 690.723 781.758 689.003C784.768 679.686 789.927 673.667 791.503 671.66C797.666 664.063 805.118 650.017 810.277 622.067C812.714 621.923 816.726 621.35 820.739 619.057C829.194 614.183 833.207 604.293 832.777 595.693C832.634 593.687 832.061 582.22 823.749 578.35C820.309 576.773 816.726 577.203 814.72 577.633C788.064 550.687 761.264 524.17 734.465 497.51Z" fill="#091520"/>
<path d="M734.465 497.367C718.557 506.683 707.522 517.003 700.5 524.6C677.14 549.97 669.688 576.487 668.111 582.65C667.108 586.52 666.392 589.673 666.105 591.967C664.529 591.393 660.946 590.39 657.363 591.967C651.917 594.403 650.771 600.997 650.197 604.293C648.764 611.89 651.63 617.91 652.777 620.203C654.353 623.5 656.933 628.803 663.095 631.527C668.111 633.82 672.841 632.96 674.847 632.53C676.853 637.69 679.72 644.857 684.162 653.027C690.898 665.927 697.204 677.823 709.385 688.43C714.115 692.587 721.853 698.32 733.032 702.763C735.325 706.347 738.478 711.937 740.197 719.247C741.631 724.98 741.917 729.853 741.774 733.58C745.5 735.443 752.522 738.31 761.264 738.167C778.032 737.88 789.067 727.417 791.647 724.837C788.924 716.667 786.487 706.633 785.484 695.023C785.054 689.72 784.911 684.703 784.911 680.117C789.354 675.387 794.8 668.65 799.242 659.62C807.124 643.997 808.414 629.52 808.558 621.063C810.564 621.35 814.577 621.78 818.876 620.06C824.895 617.623 827.618 612.32 829.194 609.31C829.624 608.593 835.644 596.267 830.198 584.083C828.908 581.36 826.758 576.343 822.459 575.913C819.306 575.627 816.726 578.063 815.723 579.067C809.847 572.043 798.812 559 783.334 541.083C770.006 525.46 761.551 515.713 747.363 505.68C742.204 501.953 737.618 499.23 734.465 497.367Z" fill="white"/>
<path d="M714.688 649.443C713.254 652.74 719.99 658.616 723.143 661.053C729.735 665.926 736.758 666.643 739.337 666.786C742.347 667.073 752.236 667.79 761.264 661.34C763.414 659.763 769.433 655.607 771.726 647.867C773.302 642.277 772.873 634.537 769.863 633.247C767.57 632.387 765.42 635.253 760.548 638.693C751.949 644.57 743.064 646.003 735.468 647.15C722.57 649.157 716.121 646.577 714.688 649.443Z" fill="#202020"/>
<path d="M669.257 616.333C674.416 637.833 682.728 658.903 696.486 676.39C708.668 692.013 726.725 707.063 747.792 705.057C767.282 703.193 783.19 688 793.509 672.52C805.69 654.46 811.566 632.817 810.993 611.03C810.849 608.307 806.55 608.307 806.693 611.03C807.267 630.953 802.107 650.447 791.645 667.36C781.757 683.27 765.419 700.04 745.499 700.9C724.432 701.76 707.091 684.56 695.913 668.507C684.734 652.453 677.855 633.963 673.269 615.043C672.696 612.463 668.54 613.61 669.257 616.333Z" fill="#202020"/>
<path d="M730.166 703.05C736.185 712.223 739.195 722.257 739.195 733.293C739.195 736.017 743.494 736.017 743.494 733.293C743.494 721.683 740.198 710.647 733.892 700.9C732.459 698.463 728.733 700.613 730.166 703.05Z" fill="#202020"/>
<path d="M741.201 735.013C758.685 745.047 781.328 740.173 793.223 724.12C794.943 721.97 791.217 719.82 789.497 721.97C778.892 736.16 758.541 740.173 743.35 731.286C740.914 729.996 738.764 733.723 741.201 735.013Z" fill="#202020"/>
<path d="M782.475 683.843C782.618 696.887 784.624 709.787 788.78 722.257C789.64 724.837 793.796 723.69 792.936 721.11C789.067 708.927 786.917 696.6 786.774 683.843C786.774 680.977 782.475 680.977 782.475 683.843Z" fill="#202020"/>
<path d="M673.557 629.95C671.694 631.957 667.108 631.24 664.958 630.093C663.239 629.233 661.662 627.943 660.372 626.653C657.506 623.93 655.213 620.633 653.78 617.05C650.914 610.313 649.624 590.963 662.379 594.403C665.102 595.12 666.248 590.963 663.525 590.247C647.761 586.09 645.325 607.017 649.337 617.48C652.49 625.937 666.965 643.423 676.71 632.96C678.43 630.953 675.42 627.943 673.557 629.95Z" fill="#202020"/>
<path d="M817.586 579.783C819.306 574.05 826.758 585.087 827.618 587.093C829.338 591.68 829.911 596.697 829.195 601.57C828.048 611.317 820.309 620.633 809.561 617.91C806.838 617.193 805.691 621.35 808.414 622.067C825.755 626.51 835.07 608.45 833.494 593.687C832.777 587.237 830.198 578.923 824.035 575.483C820.023 573.333 814.863 573.907 813.43 578.493C812.57 581.36 816.726 582.363 817.586 579.783Z" fill="#202020"/>
<path d="M688.892 549.397C693.621 540.367 701.933 534.49 711.965 533.056C714.688 532.626 713.542 528.47 710.819 528.9C699.784 530.476 690.325 537.357 685.166 547.247C683.876 549.683 687.602 551.833 688.892 549.397Z" fill="#202020"/>
<path d="M755.102 527.323C767.14 524.457 779.178 530.477 784.624 541.37C785.914 543.807 789.497 541.657 788.35 539.22C782.045 526.463 767.713 519.87 753.955 523.167C751.232 523.883 752.379 528.04 755.102 527.323Z" fill="#202020"/>
<path d="M723.859 544.953C726.582 560.147 727.299 575.77 725.722 591.25C725.149 595.98 722.856 602.717 725.006 607.447C727.299 612.607 733.461 617.05 737.331 621.063C739.194 623.07 742.347 620.06 740.34 618.053C737.761 615.33 735.181 612.75 732.601 610.027C728.589 605.87 728.159 604.58 729.019 598.56C729.735 593.113 730.452 587.523 730.738 581.933C731.312 569.177 730.308 556.42 728.015 543.95C727.585 541.083 723.429 542.23 723.859 544.953Z" fill="#202020"/>
<path d="M705.802 581.79C703.652 578.35 702.649 574.623 702.936 570.61C702.936 569.75 703.509 566.023 704.226 565.88C704.656 565.88 705.372 570.897 705.515 571.47C705.802 573.333 705.945 575.34 705.945 577.203C705.945 577.777 705.802 582.507 705.802 579.64C705.659 575.483 705.945 571.327 706.089 567.17C704.656 567.313 703.222 567.6 701.933 567.743C702.649 572.187 703.079 576.63 703.079 581.217C704.512 581.217 705.945 581.217 707.378 581.217C707.378 580.643 707.378 580.07 707.378 579.497C707.378 576.773 703.079 576.773 703.079 579.497C703.079 580.07 703.079 580.643 703.079 581.217C703.079 583.94 707.378 583.94 707.378 581.217C707.378 576.343 706.949 571.47 706.089 566.597C705.659 564.16 701.933 564.877 701.933 567.17C701.789 571.757 701.216 576.773 701.789 581.36C702.076 583.51 703.079 585.517 705.515 585.947C712.681 587.38 710.531 573.333 709.958 569.893C709.528 567.17 709.098 563.013 706.519 561.437C704.369 560.147 702.076 561.437 700.786 563.443C697.203 569.463 699.21 578.35 702.506 583.797C703.509 586.233 707.235 584.083 705.802 581.79Z" fill="#202020"/>
<path d="M772.013 574.193C769.863 570.753 768.86 567.026 769.147 563.013C769.147 562.153 769.72 558.426 770.437 558.283C770.867 558.283 771.583 563.3 771.726 563.873C772.013 565.736 772.156 567.743 772.156 569.606C772.156 570.18 772.013 574.91 772.013 572.043C771.87 567.886 772.156 563.73 772.3 559.573C770.867 559.716 769.433 560.003 768.144 560.146C768.86 564.59 769.29 569.033 769.29 573.62C770.723 573.62 772.156 573.62 773.59 573.62C773.59 573.046 773.59 572.473 773.59 571.9C773.59 569.176 769.29 569.176 769.29 571.9C769.29 572.473 769.29 573.046 769.29 573.62C769.29 576.343 773.59 576.343 773.59 573.62C773.59 568.746 773.16 563.873 772.3 559C771.87 556.563 768.144 557.28 768.144 559.573C768 564.16 767.427 569.176 768 573.763C768.287 575.913 769.29 577.92 771.726 578.35C778.892 579.783 776.742 565.736 776.169 562.296C775.739 559.573 775.309 555.416 772.73 553.84C770.58 552.55 768.287 553.84 766.997 555.846C763.414 561.866 765.421 570.753 768.717 576.2C769.72 578.78 773.446 576.63 772.013 574.193Z" fill="#202020"/>
<path d="M684.593 594.977C687.316 594.977 687.316 590.677 684.593 590.677C681.87 590.677 681.87 594.977 684.593 594.977Z" fill="#202020"/>
<path d="M701.503 598.13C701.647 598.13 701.79 598.13 702.076 598.13C703.223 598.13 704.226 597.127 704.226 595.98C704.226 594.833 703.223 593.83 702.076 593.83C701.933 593.83 701.79 593.83 701.503 593.83C700.357 593.83 699.354 594.833 699.354 595.98C699.354 597.127 700.213 598.13 701.503 598.13Z" fill="#202020"/>
<path d="M691.471 611.317C694.194 611.317 694.194 607.016 691.471 607.016C688.748 607.016 688.605 611.317 691.471 611.317Z" fill="#202020"/>
<path d="M772.872 592.827C773.016 592.827 773.159 592.827 773.446 592.827C774.592 592.827 775.595 591.823 775.595 590.677C775.595 589.53 774.592 588.526 773.446 588.526C773.302 588.526 773.159 588.526 772.872 588.526C771.726 588.526 770.723 589.53 770.723 590.677C770.723 591.823 771.583 592.827 772.872 592.827Z" fill="#202020"/>
<path d="M788.638 582.22C791.361 582.22 791.361 577.92 788.638 577.92C785.915 577.92 785.915 582.22 788.638 582.22Z" fill="#202020"/>
<path d="M786.488 593.83C786.631 593.83 786.774 593.83 787.061 593.83C788.207 593.83 789.211 592.827 789.211 591.68C789.211 590.533 788.207 589.53 787.061 589.53C786.918 589.53 786.774 589.53 786.488 589.53C785.341 589.53 784.338 590.533 784.338 591.68C784.481 592.827 785.341 593.83 786.488 593.83Z" fill="#202020"/>
<path d="M718.27 652.74C715.977 649.443 712.251 644.713 713.827 640.413C715.69 635.54 721.566 636.257 725.435 636.83C730.165 637.547 734.034 638.406 738.62 636.973C742.346 635.826 745.642 633.39 749.082 631.527C757.251 626.94 766.853 626.51 769.432 637.26C776.741 666.643 724.862 674.956 716.837 649.156C715.977 646.576 711.821 647.58 712.681 650.303C722.569 681.98 783.907 670.226 773.158 635.11C771.295 629.233 766.853 624.216 760.547 623.5C750.228 622.496 743.493 632.816 733.604 633.533C726.295 634.106 717.41 628.517 711.534 635.397C706.231 641.56 710.531 649.443 714.4 654.89C716.12 657.183 719.846 655.033 718.27 652.74Z" fill="#202020"/>
<path d="M709.958 644.57C713.11 653.313 728.875 650.59 735.754 649.587C748.939 647.58 760.977 641.847 771.152 633.39C773.302 631.67 770.292 628.517 768.142 630.38C760.69 636.687 752.091 641.273 742.633 643.853C738.477 645 716.55 649.873 714.257 643.567C713.11 640.843 708.954 641.99 709.958 644.57Z" fill="#202020"/>
<path d="M735.467 707.493C752.235 711.793 774.591 701.187 784.05 687.283C785.626 684.99 781.9 682.84 780.324 685.133C772.012 697.317 751.231 707.063 736.614 703.337C733.891 702.62 732.744 706.777 735.467 707.493Z" fill="#202020"/>
<path d="M737.044 708.783C751.949 718.1 776.455 704.913 783.621 690.723C784.911 688.287 781.185 686.137 779.895 688.573C773.876 700.613 751.949 713.083 739.194 705.2C736.758 703.623 734.608 707.35 737.044 708.783Z" fill="#202020"/>
<path opacity="0.2" d="M796.518 556.85C797.522 562.01 798.811 570.18 799.671 580.07C801.678 606.443 805.117 650.59 778.461 679.973C772.729 686.28 760.547 697.46 738.047 703.767C745.213 703.48 753.955 702.62 763.413 700.183C768.143 699.037 772.442 697.603 776.311 696.027C776.885 708.783 777.314 721.54 777.888 734.297C782.76 731.143 787.49 728.133 792.362 724.98C785.77 710.36 785.77 699.036 786.63 691.87C787.92 681.836 791.646 673.667 795.372 665.497C798.668 658.33 802.108 652.597 804.83 648.583C805.117 651.593 805.834 654.746 807.84 657.756C816.582 670.8 843.955 672.09 861.152 660.91C877.06 650.59 884.799 629.663 880.786 608.163C883.509 610.457 886.375 613.18 889.098 616.477C891.248 619.057 896.837 626.51 904.576 652.74C907.012 660.91 908.159 665.066 908.875 669.223C909.735 674.956 911.312 685.85 908.302 698.177C903.143 719.39 887.808 731.573 883.222 735.013C879.926 737.45 869.894 744.76 854.847 748.2C847.681 749.777 826.184 754.937 805.977 743.183C798.381 738.74 794.225 735.443 791.932 731.43C789.496 726.987 789.209 722.83 788.923 719.677C787.633 700.04 787.06 690.15 788.35 683.413C792.219 663.92 800.961 661.913 805.834 639.697C807.553 631.67 807.983 624.933 808.127 620.633C809.99 620.92 812.856 621.207 816.295 620.347C823.461 618.483 827.044 612.607 828.334 610.457C833.493 602.287 835.786 587.667 827.76 580.93C826.614 579.927 822.601 576.917 814.862 577.49C808.987 570.61 802.824 563.73 796.518 556.85Z" fill="#091520"/>
<path opacity="0.13" d="M728.59 603.29C735.899 605.44 743.351 607.733 750.66 609.883C748.797 611.603 746.934 613.18 744.927 614.9C743.064 616.477 741.345 617.766 739.482 619.2C737.189 617.48 733.892 614.47 731.313 609.883C729.88 607.447 729.02 605.153 728.59 603.29Z" fill="#091520"/>
<path opacity="0.16" d="M613.653 621.207C598.031 676.39 609.64 720.967 633 730.713C651.344 738.31 684.449 727.56 690.611 708.783C691.471 706.347 692.331 702.047 689.035 688.86C686.169 677.25 680.293 659.763 667.108 639.84C664.815 638.407 661.805 636.113 658.939 632.673C653.923 626.51 652.49 619.917 652.06 616.763C656.216 621.063 662.235 626.51 666.105 624.79C669.831 623.07 672.124 617.91 670.834 612.75C672.124 619.343 674.13 628.373 677.857 638.837C682.729 652.74 687.602 666.213 698.923 678.97C704.083 684.847 714.258 694.45 731.455 701.33C734.322 704.913 739.624 712.653 741.344 723.977C741.631 725.697 742.634 733.58 740.054 743.47C739.481 745.763 736.041 758.233 724.72 768.983C711.535 781.597 695.771 783.89 690.611 784.607C651.774 789.767 621.678 755.797 616.375 749.92C611.073 743.9 602.331 733.867 597.315 718.387C589.289 693.733 595.452 671.517 599.894 655.32C604.051 640.127 609.64 628.66 613.653 621.207Z" fill="#091520"/>
</svg>
